M48
; DRILL file {KiCad (6.0.7)} date Fri Sep  2 14:05:45 2022
; FORMAT={2:4/ absolute / inch / suppress leading zeros}
; #@! TF.CreationDate,2022-09-02T14:05:45+02:00
; #@! TF.GenerationSoftware,Kicad,Pcbnew,(6.0.7)
; #@! TF.FileFunction,Plated,1,2,PTH
FMAT,2
INCH,TZ
; #@! TA.AperFunction,Plated,PTH,ViaDrill
T1C0.0120
; #@! TA.AperFunction,Plated,PTH,ViaDrill
T2C0.0157
; #@! TA.AperFunction,Plated,PTH,ComponentDrill
T3C0.0394
%
G90
G05
T1
X12392Y-11841
X12569Y-13130
X12854Y-11909
X13474Y-11654
X13573Y-15325
X13770Y-12736
X13888Y-14951
X13996Y-16211
X14144Y-10876
X15069Y-12667
X15650Y-12726
X16161Y-10118
X16791Y-14439
X16909Y-14911
X17343Y-18159
X17756Y-9459
X17913Y-8228
X18140Y-12697
X18159Y-15856
X18238Y-13750
X18848Y-16565
X18868Y-10846
X19469Y-17904
X19577Y-14183
X19911Y-10866
X22618Y-16801
X22766Y-17362
T2
X9047Y-14959
X9055Y-11476
X11270Y-11447
X12234Y-14094
X12576Y-8192
X13287Y-17431
X14941Y-10886
X20157Y-17874
X20236Y-12687
X22087Y-9055
T3
X15433Y-8656
X15433Y-9656
X23297Y-8661
X23297Y-9661
X23297Y-10661
X23297Y-11661
X23297Y-12661
X23297Y-13661
X23297Y-14661
X23297Y-15661
X23297Y-16661
X23297Y-17661
X24297Y-8661
X24297Y-9661
X24297Y-10661
X24297Y-11661
X24297Y-12661
X24297Y-13661
X24297Y-14661
X24297Y-15661
X24297Y-16661
X24297Y-17661
T0
M30
