%TF.GenerationSoftware,KiCad,Pcbnew,(6.0.7)*%
%TF.CreationDate,2022-09-02T14:05:42+02:00*%
%TF.ProjectId,blackmagic,626c6163-6b6d-4616-9769-632e6b696361,rev?*%
%TF.SameCoordinates,Original*%
%TF.FileFunction,Copper,L2,Bot*%
%TF.FilePolarity,Positive*%
%FSLAX46Y46*%
G04 Gerber Fmt 4.6, Leading zero omitted, Abs format (unit mm)*
G04 Created by KiCad (PCBNEW (6.0.7)) date 2022-09-02 14:05:42*
%MOMM*%
%LPD*%
G01*
G04 APERTURE LIST*
%TA.AperFunction,ComponentPad*%
%ADD10O,1.700000X1.700000*%
%TD*%
%TA.AperFunction,ComponentPad*%
%ADD11R,1.700000X1.700000*%
%TD*%
%TA.AperFunction,ViaPad*%
%ADD12C,0.558800*%
%TD*%
%TA.AperFunction,ViaPad*%
%ADD13C,0.800000*%
%TD*%
%TA.AperFunction,Conductor*%
%ADD14C,0.200000*%
%TD*%
G04 APERTURE END LIST*
D10*
%TO.P,J3,2,Pin_2*%
%TO.N,Net-(C1-Pad1)*%
X39200000Y-21985000D03*
D11*
%TO.P,J3,1,Pin_1*%
%TO.N,+3V3*%
X39200000Y-24525000D03*
%TD*%
%TO.P,J1,1,Pin_1*%
%TO.N,Net-(C1-Pad1)*%
X59175000Y-22000000D03*
D10*
%TO.P,J1,2,Pin_2*%
X61715000Y-22000000D03*
%TO.P,J1,3,Pin_3*%
%TO.N,Net-(J1-Pad3)*%
X59175000Y-24540000D03*
%TO.P,J1,4,Pin_4*%
%TO.N,/U1RX*%
X61715000Y-24540000D03*
%TO.P,J1,5,Pin_5*%
%TO.N,Net-(J1-Pad5)*%
X59175000Y-27080000D03*
%TO.P,J1,6,Pin_6*%
%TO.N,/U1TX*%
X61715000Y-27080000D03*
%TO.P,J1,7,Pin_7*%
%TO.N,Net-(J1-Pad7)*%
X59175000Y-29620000D03*
%TO.P,J1,8,Pin_8*%
%TO.N,/BOOT0*%
X61715000Y-29620000D03*
%TO.P,J1,9,Pin_9*%
%TO.N,Net-(J1-Pad9)*%
X59175000Y-32160000D03*
%TO.P,J1,10,Pin_10*%
%TO.N,GND*%
X61715000Y-32160000D03*
%TO.P,J1,11,Pin_11*%
%TO.N,unconnected-(J1-Pad11)*%
X59175000Y-34700000D03*
%TO.P,J1,12,Pin_12*%
%TO.N,GND*%
X61715000Y-34700000D03*
%TO.P,J1,13,Pin_13*%
%TO.N,Net-(J1-Pad13)*%
X59175000Y-37240000D03*
%TO.P,J1,14,Pin_14*%
%TO.N,GND*%
X61715000Y-37240000D03*
%TO.P,J1,15,Pin_15*%
%TO.N,Net-(J1-Pad15)*%
X59175000Y-39780000D03*
%TO.P,J1,16,Pin_16*%
%TO.N,GND*%
X61715000Y-39780000D03*
%TO.P,J1,17,Pin_17*%
%TO.N,unconnected-(J1-Pad17)*%
X59175000Y-42320000D03*
%TO.P,J1,18,Pin_18*%
%TO.N,GND*%
X61715000Y-42320000D03*
%TO.P,J1,19,Pin_19*%
%TO.N,unconnected-(J1-Pad19)*%
X59175000Y-44860000D03*
%TO.P,J1,20,Pin_20*%
%TO.N,GND*%
X61715000Y-44860000D03*
%TD*%
D12*
%TO.N,GND*%
X46125000Y-40275000D03*
X39750000Y-32325000D03*
D13*
X31075000Y-35800000D03*
X22979000Y-37995000D03*
X28625000Y-29075000D03*
X23000000Y-29150000D03*
X51400000Y-32225000D03*
D12*
X47925000Y-27550000D03*
X31925000Y-33350000D03*
X44050000Y-46125000D03*
%TO.N,Net-(U4-Pad46)*%
X35550000Y-41175000D03*
%TO.N,Net-(R14-Pad2)*%
X38275000Y-32175000D03*
X34225000Y-29600000D03*
X35925000Y-27625000D03*
%TO.N,GND*%
X46325000Y-34925000D03*
X46075000Y-32250000D03*
%TO.N,Net-(R5-Pad1)*%
X49725000Y-36025000D03*
%TO.N,/BOOT0*%
X57450000Y-42675000D03*
D13*
%TO.N,GND*%
X51200000Y-45400000D03*
D12*
%TO.N,/BOOT0*%
X49450000Y-45475000D03*
%TO.N,GND*%
X47875000Y-42075000D03*
%TO.N,/USB_DM*%
X35275000Y-37975000D03*
%TO.N,/U1TX*%
X42650000Y-36675000D03*
%TO.N,+3V3*%
X41050000Y-25700000D03*
%TO.N,Net-(U4-Pad46)*%
X34475000Y-38925000D03*
%TO.N,/U1RX*%
X42950000Y-37875000D03*
%TO.N,+5V*%
X34975000Y-32350000D03*
%TO.N,/USB_DM*%
X32650000Y-30250000D03*
D13*
%TO.N,GND*%
X33750000Y-44275000D03*
D12*
%TO.N,+5V*%
X31475000Y-30075000D03*
D13*
%TO.N,GND*%
X31942500Y-20807500D03*
%TO.N,+3V3*%
X37950000Y-27650000D03*
D12*
%TO.N,GND*%
X45100000Y-24025000D03*
%TO.N,Net-(R5-Pad1)*%
X50575000Y-27600000D03*
%TO.N,/U1TX*%
X57825000Y-44100000D03*
D13*
%TO.N,GND*%
X56100000Y-23000000D03*
D12*
X45500000Y-20900000D03*
%TD*%
D14*
%TO.N,Net-(U4-Pad46)*%
X35550000Y-40000000D02*
X35550000Y-41175000D01*
X34475000Y-38925000D02*
X35550000Y-40000000D01*
%TO.N,+5V*%
X34000000Y-31150000D02*
X34975000Y-32125000D01*
X32550000Y-31150000D02*
X34000000Y-31150000D01*
X34975000Y-32125000D02*
X34975000Y-32350000D01*
X31475000Y-30075000D02*
X32550000Y-31150000D01*
%TO.N,/USB_DM*%
X35700000Y-30250000D02*
X32650000Y-30250000D01*
X36125000Y-30675000D02*
X35700000Y-30250000D01*
X36125000Y-37125000D02*
X36125000Y-30675000D01*
X35275000Y-37975000D02*
X36125000Y-37125000D01*
%TO.N,Net-(R14-Pad2)*%
X35700000Y-29600000D02*
X38275000Y-32175000D01*
X34225000Y-29600000D02*
X35700000Y-29600000D01*
X34225000Y-29325000D02*
X34225000Y-29600000D01*
X35925000Y-27625000D02*
X34225000Y-29325000D01*
%TO.N,Net-(R5-Pad1)*%
X49725000Y-28450000D02*
X50575000Y-27600000D01*
X49725000Y-36025000D02*
X49725000Y-28450000D01*
%TO.N,/U1RX*%
X63225000Y-26050000D02*
X61715000Y-24540000D01*
X63225000Y-45650000D02*
X63225000Y-26050000D01*
X62250000Y-46625000D02*
X63225000Y-45650000D01*
X46125000Y-46625000D02*
X62250000Y-46625000D01*
X44350000Y-44850000D02*
X46125000Y-46625000D01*
X44350000Y-39275000D02*
X44350000Y-44850000D01*
X42950000Y-37875000D02*
X44350000Y-39275000D01*
%TO.N,/U1TX*%
X43200000Y-36675000D02*
X42650000Y-36675000D01*
X46250000Y-46125000D02*
X44775000Y-44650000D01*
X44775000Y-38250000D02*
X43200000Y-36675000D01*
X52525000Y-46125000D02*
X46250000Y-46125000D01*
X54550000Y-44100000D02*
X52525000Y-46125000D01*
X57825000Y-44100000D02*
X54550000Y-44100000D01*
X44775000Y-44650000D02*
X44775000Y-38250000D01*
%TO.N,/BOOT0*%
X49450000Y-45300000D02*
X52075000Y-42675000D01*
X52075000Y-42675000D02*
X57450000Y-42675000D01*
X49450000Y-45475000D02*
X49450000Y-45300000D01*
%TO.N,+3V3*%
X39100000Y-27650000D02*
X37950000Y-27650000D01*
X41050000Y-25700000D02*
X39100000Y-27650000D01*
X39875000Y-24525000D02*
X41050000Y-25700000D01*
X39200000Y-24525000D02*
X39875000Y-24525000D01*
%TD*%
%TA.AperFunction,Conductor*%
%TO.N,GND*%
G36*
X63413094Y-20161906D02*
G01*
X63422100Y-20183650D01*
X63422100Y-25815207D01*
X63413094Y-25836951D01*
X63391350Y-25845957D01*
X63369606Y-25836951D01*
X62596733Y-25064078D01*
X62587727Y-25042334D01*
X62591740Y-25027145D01*
X62634886Y-24951196D01*
X62635628Y-24949890D01*
X62636103Y-24948463D01*
X62697237Y-24764689D01*
X62697238Y-24764685D01*
X62697710Y-24763266D01*
X62703123Y-24720421D01*
X62722254Y-24568977D01*
X62722360Y-24568138D01*
X62722753Y-24540000D01*
X62721521Y-24527431D01*
X62703708Y-24345756D01*
X62703707Y-24345753D01*
X62703561Y-24344260D01*
X62703129Y-24342829D01*
X62703128Y-24342824D01*
X62647146Y-24157407D01*
X62646714Y-24155975D01*
X62554379Y-23982318D01*
X62502130Y-23918255D01*
X62431022Y-23831067D01*
X62431018Y-23831063D01*
X62430072Y-23829903D01*
X62278528Y-23704535D01*
X62105520Y-23610990D01*
X61917637Y-23552830D01*
X61722035Y-23532272D01*
X61720540Y-23532408D01*
X61720538Y-23532408D01*
X61527668Y-23549960D01*
X61527665Y-23549961D01*
X61526166Y-23550097D01*
X61337489Y-23605628D01*
X61336160Y-23606323D01*
X61336157Y-23606324D01*
X61237522Y-23657889D01*
X61163192Y-23696748D01*
X61162027Y-23697685D01*
X61162025Y-23697686D01*
X61011078Y-23819050D01*
X61011075Y-23819053D01*
X61009912Y-23819988D01*
X61008952Y-23821132D01*
X61008950Y-23821134D01*
X60894676Y-23957321D01*
X60883489Y-23970653D01*
X60788739Y-24143004D01*
X60729269Y-24330476D01*
X60707345Y-24525930D01*
X60707471Y-24527431D01*
X60708527Y-24540000D01*
X60723803Y-24721919D01*
X60778015Y-24910979D01*
X60867916Y-25085908D01*
X60868850Y-25087086D01*
X60868851Y-25087088D01*
X60989151Y-25238869D01*
X60989155Y-25238873D01*
X60990083Y-25240044D01*
X61139862Y-25367516D01*
X61141168Y-25368246D01*
X61141171Y-25368248D01*
X61310233Y-25462733D01*
X61310236Y-25462734D01*
X61311547Y-25463467D01*
X61312978Y-25463932D01*
X61332944Y-25470419D01*
X61498600Y-25524244D01*
X61607794Y-25537265D01*
X61692407Y-25547355D01*
X61692411Y-25547355D01*
X61693895Y-25547532D01*
X61695390Y-25547417D01*
X61695393Y-25547417D01*
X61888490Y-25532559D01*
X61888493Y-25532559D01*
X61889994Y-25532443D01*
X61891442Y-25532039D01*
X61891446Y-25532038D01*
X62000374Y-25501624D01*
X62079428Y-25479552D01*
X62204045Y-25416604D01*
X62227512Y-25414839D01*
X62239652Y-25422307D01*
X62963094Y-26145749D01*
X62972100Y-26167493D01*
X62972100Y-45532507D01*
X62963094Y-45554251D01*
X62154251Y-46363094D01*
X62132507Y-46372100D01*
X52711767Y-46372100D01*
X52690023Y-46363094D01*
X52681017Y-46341350D01*
X52690023Y-46319606D01*
X52694683Y-46315782D01*
X52704812Y-46309014D01*
X52707331Y-46307331D01*
X52719758Y-46288733D01*
X52723582Y-46284073D01*
X54161725Y-44845930D01*
X58167345Y-44845930D01*
X58167471Y-44847431D01*
X58175724Y-44945706D01*
X58183803Y-45041919D01*
X58238015Y-45230979D01*
X58327916Y-45405908D01*
X58328850Y-45407086D01*
X58328851Y-45407088D01*
X58449151Y-45558869D01*
X58449155Y-45558873D01*
X58450083Y-45560044D01*
X58599862Y-45687516D01*
X58601168Y-45688246D01*
X58601171Y-45688248D01*
X58770233Y-45782733D01*
X58770236Y-45782734D01*
X58771547Y-45783467D01*
X58958600Y-45844244D01*
X59067794Y-45857265D01*
X59152407Y-45867355D01*
X59152411Y-45867355D01*
X59153895Y-45867532D01*
X59155390Y-45867417D01*
X59155393Y-45867417D01*
X59348490Y-45852559D01*
X59348493Y-45852559D01*
X59349994Y-45852443D01*
X59351442Y-45852039D01*
X59351446Y-45852038D01*
X59467603Y-45819606D01*
X59539428Y-45799552D01*
X59714981Y-45710874D01*
X59869966Y-45589786D01*
X59882133Y-45575691D01*
X59960858Y-45484487D01*
X59998480Y-45440901D01*
X60010237Y-45420206D01*
X60094886Y-45271196D01*
X60095628Y-45269890D01*
X60106087Y-45238450D01*
X60157237Y-45084689D01*
X60157238Y-45084685D01*
X60157710Y-45083266D01*
X60158440Y-45077493D01*
X60174092Y-44953586D01*
X60692200Y-44953586D01*
X60699859Y-45044792D01*
X60700399Y-45047733D01*
X60755085Y-45238450D01*
X60756185Y-45241227D01*
X60846873Y-45417688D01*
X60848496Y-45420206D01*
X60971732Y-45575691D01*
X60973807Y-45577838D01*
X61124899Y-45706429D01*
X61127350Y-45708133D01*
X61300538Y-45804924D01*
X61303283Y-45806123D01*
X61491973Y-45867432D01*
X61494888Y-45868073D01*
X61620426Y-45883043D01*
X61624933Y-45881776D01*
X61626500Y-45878984D01*
X61626500Y-45877153D01*
X61803500Y-45877153D01*
X61805025Y-45880835D01*
X61810212Y-45882754D01*
X61892696Y-45876407D01*
X61895652Y-45875886D01*
X62086737Y-45822533D01*
X62089527Y-45821451D01*
X62266609Y-45732001D01*
X62269146Y-45730391D01*
X62425482Y-45608248D01*
X62427646Y-45606188D01*
X62557289Y-45455994D01*
X62559009Y-45453556D01*
X62657009Y-45281046D01*
X62658226Y-45278313D01*
X62720851Y-45090054D01*
X62721512Y-45087145D01*
X62738260Y-44954568D01*
X62737025Y-44950053D01*
X62734303Y-44948500D01*
X61809617Y-44948500D01*
X61805292Y-44950292D01*
X61803500Y-44954617D01*
X61803500Y-45877153D01*
X61626500Y-45877153D01*
X61626500Y-44954617D01*
X61624708Y-44950292D01*
X61620383Y-44948500D01*
X60697890Y-44948500D01*
X60693565Y-44950292D01*
X60692200Y-44953586D01*
X60174092Y-44953586D01*
X60182254Y-44888977D01*
X60182360Y-44888138D01*
X60182753Y-44860000D01*
X60181481Y-44847029D01*
X60173480Y-44765421D01*
X60692125Y-44765421D01*
X60693423Y-44769919D01*
X60696288Y-44771500D01*
X61620383Y-44771500D01*
X61624708Y-44769708D01*
X61626500Y-44765383D01*
X61803500Y-44765383D01*
X61805292Y-44769708D01*
X61809617Y-44771500D01*
X62732174Y-44771500D01*
X62736499Y-44769708D01*
X62737806Y-44766554D01*
X62727462Y-44661052D01*
X62726882Y-44658120D01*
X62669535Y-44468179D01*
X62668400Y-44465425D01*
X62575255Y-44290244D01*
X62573600Y-44287753D01*
X62448205Y-44134003D01*
X62446096Y-44131880D01*
X62293232Y-44005420D01*
X62290742Y-44003741D01*
X62116228Y-43909382D01*
X62113468Y-43908222D01*
X61923943Y-43849554D01*
X61921011Y-43848952D01*
X61809581Y-43837240D01*
X61805095Y-43838569D01*
X61803500Y-43841507D01*
X61803500Y-44765383D01*
X61626500Y-44765383D01*
X61626500Y-43842883D01*
X61624708Y-43838558D01*
X61621485Y-43837222D01*
X61523130Y-43846173D01*
X61520184Y-43846735D01*
X61329860Y-43902751D01*
X61327086Y-43903871D01*
X61151260Y-43995791D01*
X61148765Y-43997423D01*
X60994135Y-44121748D01*
X60992007Y-44123832D01*
X60864473Y-44275822D01*
X60862783Y-44278291D01*
X60767206Y-44452145D01*
X60766027Y-44454895D01*
X60706037Y-44644008D01*
X60705414Y-44646940D01*
X60692125Y-44765421D01*
X60173480Y-44765421D01*
X60163708Y-44665756D01*
X60163707Y-44665753D01*
X60163561Y-44664260D01*
X60163129Y-44662829D01*
X60163128Y-44662824D01*
X60127628Y-44545245D01*
X60106714Y-44475975D01*
X60047104Y-44363864D01*
X60015085Y-44303645D01*
X60015083Y-44303642D01*
X60014379Y-44302318D01*
X59955906Y-44230623D01*
X59891022Y-44151067D01*
X59891018Y-44151063D01*
X59890072Y-44149903D01*
X59858558Y-44123832D01*
X59739690Y-44025496D01*
X59739688Y-44025495D01*
X59738528Y-44024535D01*
X59565520Y-43930990D01*
X59377637Y-43872830D01*
X59182035Y-43852272D01*
X59180540Y-43852408D01*
X59180538Y-43852408D01*
X58987668Y-43869960D01*
X58987665Y-43869961D01*
X58986166Y-43870097D01*
X58797489Y-43925628D01*
X58796160Y-43926323D01*
X58796157Y-43926324D01*
X58702242Y-43975422D01*
X58623192Y-44016748D01*
X58622027Y-44017685D01*
X58622025Y-44017686D01*
X58471078Y-44139050D01*
X58471075Y-44139053D01*
X58469912Y-44139988D01*
X58468952Y-44141132D01*
X58468950Y-44141134D01*
X58393860Y-44230623D01*
X58343489Y-44290653D01*
X58342764Y-44291972D01*
X58264459Y-44434410D01*
X58248739Y-44463004D01*
X58248285Y-44464434D01*
X58248285Y-44464435D01*
X58237105Y-44499680D01*
X58189269Y-44650476D01*
X58167345Y-44845930D01*
X54161725Y-44845930D01*
X54645749Y-44361906D01*
X54667493Y-44352900D01*
X57458476Y-44352900D01*
X57480220Y-44361906D01*
X57482015Y-44363864D01*
X57533895Y-44425583D01*
X57535722Y-44426799D01*
X57535724Y-44426801D01*
X57607611Y-44474653D01*
X57636976Y-44494200D01*
X57639068Y-44494854D01*
X57639069Y-44494854D01*
X57658181Y-44500825D01*
X57755173Y-44531127D01*
X57798728Y-44531925D01*
X57876793Y-44533356D01*
X57876794Y-44533356D01*
X57878982Y-44533396D01*
X57881094Y-44532820D01*
X57881096Y-44532820D01*
X57922155Y-44521626D01*
X57998452Y-44500825D01*
X58000314Y-44499682D01*
X58000318Y-44499680D01*
X58102116Y-44437175D01*
X58102117Y-44437175D01*
X58103979Y-44436031D01*
X58179226Y-44352900D01*
X58185607Y-44345851D01*
X58185609Y-44345848D01*
X58187078Y-44344225D01*
X58241070Y-44232785D01*
X58261615Y-44110671D01*
X58261745Y-44100000D01*
X58244190Y-43977420D01*
X58192937Y-43864695D01*
X58176978Y-43846173D01*
X58113538Y-43772548D01*
X58112105Y-43770885D01*
X58110267Y-43769693D01*
X58110265Y-43769692D01*
X58010032Y-43704724D01*
X58010030Y-43704723D01*
X58008194Y-43703533D01*
X57941354Y-43683543D01*
X57891656Y-43668680D01*
X57891654Y-43668680D01*
X57889555Y-43668052D01*
X57828093Y-43667677D01*
X57767923Y-43667309D01*
X57767920Y-43667309D01*
X57765727Y-43667296D01*
X57646664Y-43701324D01*
X57594300Y-43734363D01*
X57543789Y-43766233D01*
X57543787Y-43766235D01*
X57541937Y-43767402D01*
X57540486Y-43769045D01*
X57480731Y-43836705D01*
X57457683Y-43847100D01*
X54577938Y-43847100D01*
X54571939Y-43846509D01*
X54552971Y-43842736D01*
X54550000Y-43842145D01*
X54525089Y-43847100D01*
X54499088Y-43852272D01*
X54451323Y-43861773D01*
X54448807Y-43863454D01*
X54448805Y-43863455D01*
X54389995Y-43902751D01*
X54388787Y-43903558D01*
X54388786Y-43903559D01*
X54367669Y-43917669D01*
X54365986Y-43920188D01*
X54365985Y-43920189D01*
X54355242Y-43936267D01*
X54351418Y-43940927D01*
X52429251Y-45863094D01*
X52407507Y-45872100D01*
X49738369Y-45872100D01*
X49716625Y-45863094D01*
X49707619Y-45841350D01*
X49716625Y-45819606D01*
X49722279Y-45815146D01*
X49727111Y-45812179D01*
X49727116Y-45812175D01*
X49728979Y-45811031D01*
X49800514Y-45732001D01*
X49810607Y-45720851D01*
X49810609Y-45720848D01*
X49812078Y-45719225D01*
X49866070Y-45607785D01*
X49868313Y-45594457D01*
X49886418Y-45486839D01*
X49886615Y-45485671D01*
X49886745Y-45475000D01*
X49886293Y-45471840D01*
X49869501Y-45354593D01*
X49869190Y-45352420D01*
X49842393Y-45293483D01*
X49841592Y-45269964D01*
X49848641Y-45259014D01*
X52170748Y-42936906D01*
X52192492Y-42927900D01*
X57083476Y-42927900D01*
X57105220Y-42936906D01*
X57107015Y-42938864D01*
X57158895Y-43000583D01*
X57160722Y-43001799D01*
X57160724Y-43001801D01*
X57257451Y-43066188D01*
X57261976Y-43069200D01*
X57264068Y-43069854D01*
X57264069Y-43069854D01*
X57283181Y-43075825D01*
X57380173Y-43106127D01*
X57423728Y-43106925D01*
X57501793Y-43108356D01*
X57501794Y-43108356D01*
X57503982Y-43108396D01*
X57506094Y-43107820D01*
X57506096Y-43107820D01*
X57547155Y-43096626D01*
X57623452Y-43075825D01*
X57625314Y-43074682D01*
X57625318Y-43074680D01*
X57727116Y-43012175D01*
X57727117Y-43012175D01*
X57728979Y-43011031D01*
X57804226Y-42927900D01*
X57810607Y-42920851D01*
X57810609Y-42920848D01*
X57812078Y-42919225D01*
X57866070Y-42807785D01*
X57886615Y-42685671D01*
X57886745Y-42675000D01*
X57869190Y-42552420D01*
X57817937Y-42439695D01*
X57796329Y-42414617D01*
X57738538Y-42347548D01*
X57737105Y-42345885D01*
X57735267Y-42344693D01*
X57735265Y-42344692D01*
X57675463Y-42305930D01*
X58167345Y-42305930D01*
X58167471Y-42307431D01*
X58170310Y-42341233D01*
X58183803Y-42501919D01*
X58197711Y-42550422D01*
X58233775Y-42676191D01*
X58238015Y-42690979D01*
X58327916Y-42865908D01*
X58328850Y-42867086D01*
X58328851Y-42867088D01*
X58449151Y-43018869D01*
X58449155Y-43018873D01*
X58450083Y-43020044D01*
X58451225Y-43021016D01*
X58514280Y-43074680D01*
X58599862Y-43147516D01*
X58601168Y-43148246D01*
X58601171Y-43148248D01*
X58770233Y-43242733D01*
X58770236Y-43242734D01*
X58771547Y-43243467D01*
X58958600Y-43304244D01*
X59067794Y-43317265D01*
X59152407Y-43327355D01*
X59152411Y-43327355D01*
X59153895Y-43327532D01*
X59155390Y-43327417D01*
X59155393Y-43327417D01*
X59348490Y-43312559D01*
X59348493Y-43312559D01*
X59349994Y-43312443D01*
X59351442Y-43312039D01*
X59351446Y-43312038D01*
X59515893Y-43266123D01*
X59539428Y-43259552D01*
X59714981Y-43170874D01*
X59869966Y-43049786D01*
X59882133Y-43035691D01*
X59985452Y-42915994D01*
X59998480Y-42900901D01*
X60010237Y-42880206D01*
X60094886Y-42731196D01*
X60095628Y-42729890D01*
X60106087Y-42698450D01*
X60157237Y-42544689D01*
X60157238Y-42544685D01*
X60157710Y-42543266D01*
X60161164Y-42515930D01*
X60174092Y-42413586D01*
X60692200Y-42413586D01*
X60699859Y-42504792D01*
X60700399Y-42507733D01*
X60755085Y-42698450D01*
X60756185Y-42701227D01*
X60846873Y-42877688D01*
X60848496Y-42880206D01*
X60971732Y-43035691D01*
X60973807Y-43037838D01*
X61124899Y-43166429D01*
X61127350Y-43168133D01*
X61300538Y-43264924D01*
X61303283Y-43266123D01*
X61491973Y-43327432D01*
X61494888Y-43328073D01*
X61620426Y-43343043D01*
X61624933Y-43341776D01*
X61626500Y-43338984D01*
X61626500Y-43337153D01*
X61803500Y-43337153D01*
X61805025Y-43340835D01*
X61810212Y-43342754D01*
X61892696Y-43336407D01*
X61895652Y-43335886D01*
X62086737Y-43282533D01*
X62089527Y-43281451D01*
X62266609Y-43192001D01*
X62269146Y-43190391D01*
X62425482Y-43068248D01*
X62427646Y-43066188D01*
X62557289Y-42915994D01*
X62559009Y-42913556D01*
X62657009Y-42741046D01*
X62658226Y-42738313D01*
X62720851Y-42550054D01*
X62721512Y-42547145D01*
X62738260Y-42414568D01*
X62737025Y-42410053D01*
X62734303Y-42408500D01*
X61809617Y-42408500D01*
X61805292Y-42410292D01*
X61803500Y-42414617D01*
X61803500Y-43337153D01*
X61626500Y-43337153D01*
X61626500Y-42414617D01*
X61624708Y-42410292D01*
X61620383Y-42408500D01*
X60697890Y-42408500D01*
X60693565Y-42410292D01*
X60692200Y-42413586D01*
X60174092Y-42413586D01*
X60182254Y-42348977D01*
X60182360Y-42348138D01*
X60182392Y-42345885D01*
X60182741Y-42320861D01*
X60182753Y-42320000D01*
X60181521Y-42307431D01*
X60173480Y-42225421D01*
X60692125Y-42225421D01*
X60693423Y-42229919D01*
X60696288Y-42231500D01*
X61620383Y-42231500D01*
X61624708Y-42229708D01*
X61626500Y-42225383D01*
X61803500Y-42225383D01*
X61805292Y-42229708D01*
X61809617Y-42231500D01*
X62732174Y-42231500D01*
X62736499Y-42229708D01*
X62737806Y-42226554D01*
X62727462Y-42121052D01*
X62726882Y-42118120D01*
X62669535Y-41928179D01*
X62668400Y-41925425D01*
X62575255Y-41750244D01*
X62573600Y-41747753D01*
X62448205Y-41594003D01*
X62446096Y-41591880D01*
X62293232Y-41465420D01*
X62290742Y-41463741D01*
X62116228Y-41369382D01*
X62113468Y-41368222D01*
X61923943Y-41309554D01*
X61921011Y-41308952D01*
X61809581Y-41297240D01*
X61805095Y-41298569D01*
X61803500Y-41301507D01*
X61803500Y-42225383D01*
X61626500Y-42225383D01*
X61626500Y-41302883D01*
X61624708Y-41298558D01*
X61621485Y-41297222D01*
X61523130Y-41306173D01*
X61520184Y-41306735D01*
X61329860Y-41362751D01*
X61327086Y-41363871D01*
X61151260Y-41455791D01*
X61148765Y-41457423D01*
X60994135Y-41581748D01*
X60992007Y-41583832D01*
X60864473Y-41735822D01*
X60862783Y-41738291D01*
X60767206Y-41912145D01*
X60766027Y-41914895D01*
X60706037Y-42104008D01*
X60705414Y-42106940D01*
X60692125Y-42225421D01*
X60173480Y-42225421D01*
X60163708Y-42125756D01*
X60163707Y-42125753D01*
X60163561Y-42124260D01*
X60163129Y-42122829D01*
X60163128Y-42122824D01*
X60107146Y-41937407D01*
X60106714Y-41935975D01*
X60014379Y-41762318D01*
X59962130Y-41698255D01*
X59891022Y-41611067D01*
X59891018Y-41611063D01*
X59890072Y-41609903D01*
X59888913Y-41608944D01*
X59739690Y-41485496D01*
X59739688Y-41485495D01*
X59738528Y-41484535D01*
X59565520Y-41390990D01*
X59377637Y-41332830D01*
X59182035Y-41312272D01*
X59180540Y-41312408D01*
X59180538Y-41312408D01*
X58987668Y-41329960D01*
X58987665Y-41329961D01*
X58986166Y-41330097D01*
X58797489Y-41385628D01*
X58796160Y-41386323D01*
X58796157Y-41386324D01*
X58730113Y-41420851D01*
X58623192Y-41476748D01*
X58622027Y-41477685D01*
X58622025Y-41477686D01*
X58471078Y-41599050D01*
X58471075Y-41599053D01*
X58469912Y-41599988D01*
X58468952Y-41601132D01*
X58468950Y-41601134D01*
X58355934Y-41735822D01*
X58343489Y-41750653D01*
X58248739Y-41923004D01*
X58189269Y-42110476D01*
X58189101Y-42111974D01*
X58170285Y-42279724D01*
X58167345Y-42305930D01*
X57675463Y-42305930D01*
X57635032Y-42279724D01*
X57635030Y-42279723D01*
X57633194Y-42278533D01*
X57566354Y-42258543D01*
X57516656Y-42243680D01*
X57516654Y-42243680D01*
X57514555Y-42243052D01*
X57453093Y-42242677D01*
X57392923Y-42242309D01*
X57392920Y-42242309D01*
X57390727Y-42242296D01*
X57271664Y-42276324D01*
X57222363Y-42307431D01*
X57168789Y-42341233D01*
X57168787Y-42341235D01*
X57166937Y-42342402D01*
X57106979Y-42410292D01*
X57105731Y-42411705D01*
X57082683Y-42422100D01*
X52102939Y-42422100D01*
X52096940Y-42421509D01*
X52077971Y-42417736D01*
X52075000Y-42417145D01*
X52050090Y-42422100D01*
X52050087Y-42422100D01*
X51979294Y-42436182D01*
X51976323Y-42436773D01*
X51892669Y-42492669D01*
X51890986Y-42495188D01*
X51890985Y-42495189D01*
X51880240Y-42511270D01*
X51876416Y-42515930D01*
X49339403Y-45052942D01*
X49326110Y-45060764D01*
X49271664Y-45076324D01*
X49219301Y-45109363D01*
X49168789Y-45141233D01*
X49168787Y-45141235D01*
X49166937Y-45142402D01*
X49084965Y-45235217D01*
X49084032Y-45237203D01*
X49084032Y-45237204D01*
X49033269Y-45345326D01*
X49033268Y-45345329D01*
X49032339Y-45347308D01*
X49032002Y-45349470D01*
X49032002Y-45349471D01*
X49020989Y-45420206D01*
X49013288Y-45469664D01*
X49015534Y-45486839D01*
X49028996Y-45589786D01*
X49029344Y-45592449D01*
X49079216Y-45705793D01*
X49080622Y-45707465D01*
X49080624Y-45707469D01*
X49144898Y-45783932D01*
X49158895Y-45800583D01*
X49160722Y-45801799D01*
X49160724Y-45801801D01*
X49181684Y-45815753D01*
X49194794Y-45835299D01*
X49190242Y-45858389D01*
X49170696Y-45871499D01*
X49164645Y-45872100D01*
X46367493Y-45872100D01*
X46345749Y-45863094D01*
X45036906Y-44554251D01*
X45027900Y-44532507D01*
X45027900Y-39765930D01*
X58167345Y-39765930D01*
X58167471Y-39767431D01*
X58178715Y-39901324D01*
X58183803Y-39961919D01*
X58238015Y-40150979D01*
X58327916Y-40325908D01*
X58328850Y-40327086D01*
X58328851Y-40327088D01*
X58449151Y-40478869D01*
X58449155Y-40478873D01*
X58450083Y-40480044D01*
X58599862Y-40607516D01*
X58601168Y-40608246D01*
X58601171Y-40608248D01*
X58770233Y-40702733D01*
X58770236Y-40702734D01*
X58771547Y-40703467D01*
X58958600Y-40764244D01*
X59067794Y-40777265D01*
X59152407Y-40787355D01*
X59152411Y-40787355D01*
X59153895Y-40787532D01*
X59155390Y-40787417D01*
X59155393Y-40787417D01*
X59348490Y-40772559D01*
X59348493Y-40772559D01*
X59349994Y-40772443D01*
X59351442Y-40772039D01*
X59351446Y-40772038D01*
X59515893Y-40726123D01*
X59539428Y-40719552D01*
X59714981Y-40630874D01*
X59869966Y-40509786D01*
X59882133Y-40495691D01*
X59985452Y-40375994D01*
X59998480Y-40360901D01*
X60010237Y-40340206D01*
X60094886Y-40191196D01*
X60095628Y-40189890D01*
X60106087Y-40158450D01*
X60157237Y-40004689D01*
X60157238Y-40004685D01*
X60157710Y-40003266D01*
X60162571Y-39964792D01*
X60174092Y-39873586D01*
X60692200Y-39873586D01*
X60699859Y-39964792D01*
X60700399Y-39967733D01*
X60755085Y-40158450D01*
X60756185Y-40161227D01*
X60846873Y-40337688D01*
X60848496Y-40340206D01*
X60971732Y-40495691D01*
X60973807Y-40497838D01*
X61124899Y-40626429D01*
X61127350Y-40628133D01*
X61300538Y-40724924D01*
X61303283Y-40726123D01*
X61491973Y-40787432D01*
X61494888Y-40788073D01*
X61620426Y-40803043D01*
X61624933Y-40801776D01*
X61626500Y-40798984D01*
X61626500Y-40797153D01*
X61803500Y-40797153D01*
X61805025Y-40800835D01*
X61810212Y-40802754D01*
X61892696Y-40796407D01*
X61895652Y-40795886D01*
X62086737Y-40742533D01*
X62089527Y-40741451D01*
X62266609Y-40652001D01*
X62269146Y-40650391D01*
X62425482Y-40528248D01*
X62427646Y-40526188D01*
X62557289Y-40375994D01*
X62559009Y-40373556D01*
X62657009Y-40201046D01*
X62658226Y-40198313D01*
X62720851Y-40010054D01*
X62721512Y-40007145D01*
X62738260Y-39874568D01*
X62737025Y-39870053D01*
X62734303Y-39868500D01*
X61809617Y-39868500D01*
X61805292Y-39870292D01*
X61803500Y-39874617D01*
X61803500Y-40797153D01*
X61626500Y-40797153D01*
X61626500Y-39874617D01*
X61624708Y-39870292D01*
X61620383Y-39868500D01*
X60697890Y-39868500D01*
X60693565Y-39870292D01*
X60692200Y-39873586D01*
X60174092Y-39873586D01*
X60182254Y-39808977D01*
X60182360Y-39808138D01*
X60182401Y-39805240D01*
X60182741Y-39780861D01*
X60182753Y-39780000D01*
X60181521Y-39767431D01*
X60173480Y-39685421D01*
X60692125Y-39685421D01*
X60693423Y-39689919D01*
X60696288Y-39691500D01*
X61620383Y-39691500D01*
X61624708Y-39689708D01*
X61626500Y-39685383D01*
X61803500Y-39685383D01*
X61805292Y-39689708D01*
X61809617Y-39691500D01*
X62732174Y-39691500D01*
X62736499Y-39689708D01*
X62737806Y-39686554D01*
X62727462Y-39581052D01*
X62726882Y-39578120D01*
X62669535Y-39388179D01*
X62668400Y-39385425D01*
X62575255Y-39210244D01*
X62573600Y-39207753D01*
X62448205Y-39054003D01*
X62446096Y-39051880D01*
X62293232Y-38925420D01*
X62290742Y-38923741D01*
X62116228Y-38829382D01*
X62113468Y-38828222D01*
X61923943Y-38769554D01*
X61921011Y-38768952D01*
X61809581Y-38757240D01*
X61805095Y-38758569D01*
X61803500Y-38761507D01*
X61803500Y-39685383D01*
X61626500Y-39685383D01*
X61626500Y-38762883D01*
X61624708Y-38758558D01*
X61621485Y-38757222D01*
X61523130Y-38766173D01*
X61520184Y-38766735D01*
X61329860Y-38822751D01*
X61327086Y-38823871D01*
X61151260Y-38915791D01*
X61148765Y-38917423D01*
X60994135Y-39041748D01*
X60992007Y-39043832D01*
X60864473Y-39195822D01*
X60862783Y-39198291D01*
X60767206Y-39372145D01*
X60766027Y-39374895D01*
X60706037Y-39564008D01*
X60705414Y-39566940D01*
X60692125Y-39685421D01*
X60173480Y-39685421D01*
X60163708Y-39585756D01*
X60163707Y-39585753D01*
X60163561Y-39584260D01*
X60163129Y-39582829D01*
X60163128Y-39582824D01*
X60107146Y-39397407D01*
X60106714Y-39395975D01*
X60065892Y-39319200D01*
X60015085Y-39223645D01*
X60015083Y-39223642D01*
X60014379Y-39222318D01*
X59958488Y-39153789D01*
X59891022Y-39071067D01*
X59891018Y-39071063D01*
X59890072Y-39069903D01*
X59856886Y-39042449D01*
X59739690Y-38945496D01*
X59739688Y-38945495D01*
X59738528Y-38944535D01*
X59565520Y-38850990D01*
X59377637Y-38792830D01*
X59182035Y-38772272D01*
X59180540Y-38772408D01*
X59180538Y-38772408D01*
X58987668Y-38789960D01*
X58987665Y-38789961D01*
X58986166Y-38790097D01*
X58797489Y-38845628D01*
X58796160Y-38846323D01*
X58796157Y-38846324D01*
X58697522Y-38897889D01*
X58623192Y-38936748D01*
X58622027Y-38937685D01*
X58622025Y-38937686D01*
X58471078Y-39059050D01*
X58471075Y-39059053D01*
X58469912Y-39059988D01*
X58468952Y-39061132D01*
X58468950Y-39061134D01*
X58389522Y-39155793D01*
X58343489Y-39210653D01*
X58320868Y-39251801D01*
X58262724Y-39357566D01*
X58248739Y-39383004D01*
X58189269Y-39570476D01*
X58167345Y-39765930D01*
X45027900Y-39765930D01*
X45027900Y-38277938D01*
X45028491Y-38271939D01*
X45032264Y-38252971D01*
X45032855Y-38250000D01*
X45026734Y-38219225D01*
X45013227Y-38151323D01*
X44957331Y-38067669D01*
X44938733Y-38055242D01*
X44934073Y-38051418D01*
X44108585Y-37225930D01*
X58167345Y-37225930D01*
X58167471Y-37227431D01*
X58175366Y-37321443D01*
X58183803Y-37421919D01*
X58199231Y-37475722D01*
X58219008Y-37544692D01*
X58238015Y-37610979D01*
X58327916Y-37785908D01*
X58328850Y-37787086D01*
X58328851Y-37787088D01*
X58449151Y-37938869D01*
X58449155Y-37938873D01*
X58450083Y-37940044D01*
X58451225Y-37941016D01*
X58504302Y-37986188D01*
X58599862Y-38067516D01*
X58601168Y-38068246D01*
X58601171Y-38068248D01*
X58770233Y-38162733D01*
X58770236Y-38162734D01*
X58771547Y-38163467D01*
X58958600Y-38224244D01*
X59067794Y-38237265D01*
X59152407Y-38247355D01*
X59152411Y-38247355D01*
X59153895Y-38247532D01*
X59155390Y-38247417D01*
X59155393Y-38247417D01*
X59348490Y-38232559D01*
X59348493Y-38232559D01*
X59349994Y-38232443D01*
X59351442Y-38232039D01*
X59351446Y-38232038D01*
X59460995Y-38201451D01*
X59539428Y-38179552D01*
X59714981Y-38090874D01*
X59869966Y-37969786D01*
X59882133Y-37955691D01*
X59985452Y-37835994D01*
X59998480Y-37820901D01*
X60010237Y-37800206D01*
X60094886Y-37651196D01*
X60095628Y-37649890D01*
X60098508Y-37641233D01*
X60157237Y-37464689D01*
X60157238Y-37464685D01*
X60157710Y-37463266D01*
X60160358Y-37442309D01*
X60174092Y-37333586D01*
X60692200Y-37333586D01*
X60699859Y-37424792D01*
X60700399Y-37427733D01*
X60755085Y-37618450D01*
X60756185Y-37621227D01*
X60846873Y-37797688D01*
X60848496Y-37800206D01*
X60971732Y-37955691D01*
X60973807Y-37957838D01*
X61124899Y-38086429D01*
X61127350Y-38088133D01*
X61300538Y-38184924D01*
X61303283Y-38186123D01*
X61491973Y-38247432D01*
X61494888Y-38248073D01*
X61620426Y-38263043D01*
X61624933Y-38261776D01*
X61626500Y-38258984D01*
X61626500Y-38257153D01*
X61803500Y-38257153D01*
X61805025Y-38260835D01*
X61810212Y-38262754D01*
X61892696Y-38256407D01*
X61895652Y-38255886D01*
X62086737Y-38202533D01*
X62089527Y-38201451D01*
X62266609Y-38112001D01*
X62269146Y-38110391D01*
X62425482Y-37988248D01*
X62427646Y-37986188D01*
X62557289Y-37835994D01*
X62559009Y-37833556D01*
X62657009Y-37661046D01*
X62658226Y-37658313D01*
X62720851Y-37470054D01*
X62721512Y-37467145D01*
X62738260Y-37334568D01*
X62737025Y-37330053D01*
X62734303Y-37328500D01*
X61809617Y-37328500D01*
X61805292Y-37330292D01*
X61803500Y-37334617D01*
X61803500Y-38257153D01*
X61626500Y-38257153D01*
X61626500Y-37334617D01*
X61624708Y-37330292D01*
X61620383Y-37328500D01*
X60697890Y-37328500D01*
X60693565Y-37330292D01*
X60692200Y-37333586D01*
X60174092Y-37333586D01*
X60182254Y-37268977D01*
X60182360Y-37268138D01*
X60182753Y-37240000D01*
X60181521Y-37227431D01*
X60173480Y-37145421D01*
X60692125Y-37145421D01*
X60693423Y-37149919D01*
X60696288Y-37151500D01*
X61620383Y-37151500D01*
X61624708Y-37149708D01*
X61626500Y-37145383D01*
X61803500Y-37145383D01*
X61805292Y-37149708D01*
X61809617Y-37151500D01*
X62732174Y-37151500D01*
X62736499Y-37149708D01*
X62737806Y-37146554D01*
X62727462Y-37041052D01*
X62726882Y-37038120D01*
X62669535Y-36848179D01*
X62668400Y-36845425D01*
X62575255Y-36670244D01*
X62573600Y-36667753D01*
X62448205Y-36514003D01*
X62446096Y-36511880D01*
X62293232Y-36385420D01*
X62290742Y-36383741D01*
X62116228Y-36289382D01*
X62113468Y-36288222D01*
X61923943Y-36229554D01*
X61921011Y-36228952D01*
X61809581Y-36217240D01*
X61805095Y-36218569D01*
X61803500Y-36221507D01*
X61803500Y-37145383D01*
X61626500Y-37145383D01*
X61626500Y-36222883D01*
X61624708Y-36218558D01*
X61621485Y-36217222D01*
X61523130Y-36226173D01*
X61520184Y-36226735D01*
X61329860Y-36282751D01*
X61327086Y-36283871D01*
X61151260Y-36375791D01*
X61148765Y-36377423D01*
X60994135Y-36501748D01*
X60992007Y-36503832D01*
X60864473Y-36655822D01*
X60862783Y-36658291D01*
X60767206Y-36832145D01*
X60766027Y-36834895D01*
X60706037Y-37024008D01*
X60705414Y-37026940D01*
X60692125Y-37145421D01*
X60173480Y-37145421D01*
X60163708Y-37045756D01*
X60163707Y-37045753D01*
X60163561Y-37044260D01*
X60163129Y-37042829D01*
X60163128Y-37042824D01*
X60107146Y-36857407D01*
X60106714Y-36855975D01*
X60014379Y-36682318D01*
X59962130Y-36618255D01*
X59891022Y-36531067D01*
X59891018Y-36531063D01*
X59890072Y-36529903D01*
X59858558Y-36503832D01*
X59739690Y-36405496D01*
X59739688Y-36405495D01*
X59738528Y-36404535D01*
X59565520Y-36310990D01*
X59377637Y-36252830D01*
X59182035Y-36232272D01*
X59180540Y-36232408D01*
X59180538Y-36232408D01*
X58987668Y-36249960D01*
X58987665Y-36249961D01*
X58986166Y-36250097D01*
X58797489Y-36305628D01*
X58796160Y-36306323D01*
X58796157Y-36306324D01*
X58722766Y-36344692D01*
X58623192Y-36396748D01*
X58622027Y-36397685D01*
X58622025Y-36397686D01*
X58471078Y-36519050D01*
X58471075Y-36519053D01*
X58469912Y-36519988D01*
X58468952Y-36521132D01*
X58468950Y-36521134D01*
X58445173Y-36549471D01*
X58343489Y-36670653D01*
X58248739Y-36843004D01*
X58189269Y-37030476D01*
X58167345Y-37225930D01*
X44108585Y-37225930D01*
X43398582Y-36515927D01*
X43394758Y-36511267D01*
X43384015Y-36495189D01*
X43384014Y-36495188D01*
X43382331Y-36492669D01*
X43361214Y-36478559D01*
X43361213Y-36478558D01*
X43301195Y-36438455D01*
X43301193Y-36438454D01*
X43298677Y-36436773D01*
X43275767Y-36432216D01*
X43224911Y-36422100D01*
X43200000Y-36417145D01*
X43197029Y-36417736D01*
X43178060Y-36421509D01*
X43172061Y-36422100D01*
X43016870Y-36422100D01*
X42993575Y-36411422D01*
X42981740Y-36397686D01*
X42937105Y-36345885D01*
X42935267Y-36344693D01*
X42935265Y-36344692D01*
X42835032Y-36279724D01*
X42835030Y-36279723D01*
X42833194Y-36278533D01*
X42747250Y-36252830D01*
X42716656Y-36243680D01*
X42716654Y-36243680D01*
X42714555Y-36243052D01*
X42653093Y-36242677D01*
X42592923Y-36242309D01*
X42592920Y-36242309D01*
X42590727Y-36242296D01*
X42588617Y-36242899D01*
X42563432Y-36250097D01*
X42471664Y-36276324D01*
X42425892Y-36305204D01*
X42368789Y-36341233D01*
X42368787Y-36341235D01*
X42366937Y-36342402D01*
X42284965Y-36435217D01*
X42284032Y-36437203D01*
X42284032Y-36437204D01*
X42233269Y-36545326D01*
X42233268Y-36545329D01*
X42232339Y-36547308D01*
X42232002Y-36549470D01*
X42232002Y-36549471D01*
X42215059Y-36658291D01*
X42213288Y-36669664D01*
X42229344Y-36792449D01*
X42279216Y-36905793D01*
X42280622Y-36907465D01*
X42280624Y-36907469D01*
X42305369Y-36936906D01*
X42358895Y-37000583D01*
X42360722Y-37001799D01*
X42360724Y-37001801D01*
X42460149Y-37067984D01*
X42461976Y-37069200D01*
X42464068Y-37069854D01*
X42464069Y-37069854D01*
X42483181Y-37075825D01*
X42580173Y-37106127D01*
X42623728Y-37106925D01*
X42701793Y-37108356D01*
X42701794Y-37108356D01*
X42703982Y-37108396D01*
X42706094Y-37107820D01*
X42706096Y-37107820D01*
X42747155Y-37096626D01*
X42823452Y-37075825D01*
X42825314Y-37074682D01*
X42825318Y-37074680D01*
X42927116Y-37012175D01*
X42927117Y-37012175D01*
X42928979Y-37011031D01*
X42995071Y-36938014D01*
X43017869Y-36927900D01*
X43082507Y-36927900D01*
X43104251Y-36936906D01*
X44513094Y-38345749D01*
X44522100Y-38367493D01*
X44522100Y-39015207D01*
X44513094Y-39036951D01*
X44491350Y-39045957D01*
X44469606Y-39036951D01*
X43387991Y-37955336D01*
X43378985Y-37933592D01*
X43379411Y-37928490D01*
X43386418Y-37886839D01*
X43386615Y-37885671D01*
X43386745Y-37875000D01*
X43386293Y-37871840D01*
X43369501Y-37754593D01*
X43369190Y-37752420D01*
X43317937Y-37639695D01*
X43237105Y-37545885D01*
X43235267Y-37544693D01*
X43235265Y-37544692D01*
X43135032Y-37479724D01*
X43135030Y-37479723D01*
X43133194Y-37478533D01*
X43066354Y-37458543D01*
X43016656Y-37443680D01*
X43016654Y-37443680D01*
X43014555Y-37443052D01*
X42953093Y-37442677D01*
X42892923Y-37442309D01*
X42892920Y-37442309D01*
X42890727Y-37442296D01*
X42888617Y-37442899D01*
X42793603Y-37470054D01*
X42771664Y-37476324D01*
X42719301Y-37509363D01*
X42668789Y-37541233D01*
X42668787Y-37541235D01*
X42666937Y-37542402D01*
X42584965Y-37635217D01*
X42584032Y-37637203D01*
X42584032Y-37637204D01*
X42533269Y-37745326D01*
X42533268Y-37745329D01*
X42532339Y-37747308D01*
X42532002Y-37749470D01*
X42532002Y-37749471D01*
X42516769Y-37847308D01*
X42513288Y-37869664D01*
X42518016Y-37905818D01*
X42528795Y-37988248D01*
X42529344Y-37992449D01*
X42530228Y-37994457D01*
X42573345Y-38092449D01*
X42579216Y-38105793D01*
X42580622Y-38107465D01*
X42580624Y-38107469D01*
X42640647Y-38178874D01*
X42658895Y-38200583D01*
X42660722Y-38201799D01*
X42660724Y-38201801D01*
X42760149Y-38267984D01*
X42761976Y-38269200D01*
X42764068Y-38269854D01*
X42764069Y-38269854D01*
X42789945Y-38277938D01*
X42880173Y-38306127D01*
X42928449Y-38307012D01*
X43001794Y-38308356D01*
X43001795Y-38308356D01*
X43003982Y-38308396D01*
X43006093Y-38307820D01*
X43008136Y-38307566D01*
X43030826Y-38313816D01*
X43033681Y-38316336D01*
X44088094Y-39370749D01*
X44097100Y-39392493D01*
X44097100Y-44822061D01*
X44096509Y-44828060D01*
X44092145Y-44850000D01*
X44097100Y-44874911D01*
X44111773Y-44948677D01*
X44167669Y-45032331D01*
X44170188Y-45034014D01*
X44170189Y-45034015D01*
X44186267Y-45044758D01*
X44190927Y-45048582D01*
X45886951Y-46744606D01*
X45895957Y-46766350D01*
X45886951Y-46788094D01*
X45865207Y-46797100D01*
X20183650Y-46797100D01*
X20161906Y-46788094D01*
X20152900Y-46766350D01*
X20152900Y-38919664D01*
X34038288Y-38919664D01*
X34054344Y-39042449D01*
X34104216Y-39155793D01*
X34105622Y-39157465D01*
X34105624Y-39157469D01*
X34150330Y-39210653D01*
X34183895Y-39250583D01*
X34185722Y-39251799D01*
X34185724Y-39251801D01*
X34285149Y-39317984D01*
X34286976Y-39319200D01*
X34405173Y-39356127D01*
X34453449Y-39357012D01*
X34526794Y-39358356D01*
X34526795Y-39358356D01*
X34528982Y-39358396D01*
X34531093Y-39357820D01*
X34533136Y-39357566D01*
X34555826Y-39363816D01*
X34558681Y-39366336D01*
X35288094Y-40095748D01*
X35297100Y-40117492D01*
X35297100Y-40806414D01*
X35288094Y-40828158D01*
X35282758Y-40832420D01*
X35266937Y-40842402D01*
X35265491Y-40844039D01*
X35265489Y-40844041D01*
X35262392Y-40847548D01*
X35184965Y-40935217D01*
X35184032Y-40937203D01*
X35184032Y-40937204D01*
X35133269Y-41045326D01*
X35133268Y-41045329D01*
X35132339Y-41047308D01*
X35132002Y-41049470D01*
X35132002Y-41049471D01*
X35131205Y-41054593D01*
X35113288Y-41169664D01*
X35129344Y-41292449D01*
X35147043Y-41332673D01*
X35173018Y-41391706D01*
X35179216Y-41405793D01*
X35180622Y-41407465D01*
X35180624Y-41407469D01*
X35239648Y-41477686D01*
X35258895Y-41500583D01*
X35260722Y-41501799D01*
X35260724Y-41501801D01*
X35276309Y-41512175D01*
X35361976Y-41569200D01*
X35364068Y-41569854D01*
X35364069Y-41569854D01*
X35434571Y-41591880D01*
X35480173Y-41606127D01*
X35523728Y-41606925D01*
X35601793Y-41608356D01*
X35601794Y-41608356D01*
X35603982Y-41608396D01*
X35606094Y-41607820D01*
X35606096Y-41607820D01*
X35664562Y-41591880D01*
X35723452Y-41575825D01*
X35725314Y-41574682D01*
X35725318Y-41574680D01*
X35827116Y-41512175D01*
X35827117Y-41512175D01*
X35828979Y-41511031D01*
X35878980Y-41455791D01*
X35910607Y-41420851D01*
X35910609Y-41420848D01*
X35912078Y-41419225D01*
X35955260Y-41330097D01*
X35965114Y-41309759D01*
X35965115Y-41309757D01*
X35966070Y-41307785D01*
X35967623Y-41298558D01*
X35986418Y-41186839D01*
X35986615Y-41185671D01*
X35986745Y-41175000D01*
X35986293Y-41171840D01*
X35969501Y-41054593D01*
X35969190Y-41052420D01*
X35917937Y-40939695D01*
X35837105Y-40845885D01*
X35835267Y-40844693D01*
X35835265Y-40844692D01*
X35816925Y-40832805D01*
X35803578Y-40813421D01*
X35802900Y-40807001D01*
X35802900Y-40027939D01*
X35803491Y-40021940D01*
X35807264Y-40002971D01*
X35807855Y-40000000D01*
X35788227Y-39901324D01*
X35788227Y-39901323D01*
X35732331Y-39817669D01*
X35713730Y-39805240D01*
X35709070Y-39801416D01*
X34912991Y-39005337D01*
X34903985Y-38983593D01*
X34904411Y-38978491D01*
X34909962Y-38945496D01*
X34911615Y-38935671D01*
X34911745Y-38925000D01*
X34911293Y-38921840D01*
X34894501Y-38804593D01*
X34894190Y-38802420D01*
X34842937Y-38689695D01*
X34762105Y-38595885D01*
X34760267Y-38594693D01*
X34760265Y-38594692D01*
X34660032Y-38529724D01*
X34660030Y-38529723D01*
X34658194Y-38528533D01*
X34591354Y-38508543D01*
X34541656Y-38493680D01*
X34541654Y-38493680D01*
X34539555Y-38493052D01*
X34478093Y-38492677D01*
X34417923Y-38492309D01*
X34417920Y-38492309D01*
X34415727Y-38492296D01*
X34296664Y-38526324D01*
X34244300Y-38559363D01*
X34193789Y-38591233D01*
X34193787Y-38591235D01*
X34191937Y-38592402D01*
X34109965Y-38685217D01*
X34109032Y-38687203D01*
X34109032Y-38687204D01*
X34058269Y-38795326D01*
X34058268Y-38795329D01*
X34057339Y-38797308D01*
X34057002Y-38799470D01*
X34057002Y-38799471D01*
X34048981Y-38850990D01*
X34038288Y-38919664D01*
X20152900Y-38919664D01*
X20152900Y-35831105D01*
X25274031Y-35831105D01*
X25274464Y-35832908D01*
X25274464Y-35832909D01*
X25291153Y-35902420D01*
X25313612Y-35995968D01*
X25314462Y-35997614D01*
X25314462Y-35997615D01*
X25329211Y-36026191D01*
X25391375Y-36146631D01*
X25392595Y-36148029D01*
X25392596Y-36148031D01*
X25499739Y-36270851D01*
X25502831Y-36274396D01*
X25641547Y-36371887D01*
X25799513Y-36433476D01*
X25801347Y-36433717D01*
X25801349Y-36433718D01*
X25866771Y-36442330D01*
X25928826Y-36450500D01*
X26017516Y-36450500D01*
X26018430Y-36450389D01*
X26018437Y-36450389D01*
X26084499Y-36442394D01*
X26143320Y-36435276D01*
X26226574Y-36403817D01*
X26300188Y-36376001D01*
X26300191Y-36376000D01*
X26301923Y-36375345D01*
X26306955Y-36371887D01*
X26394518Y-36311706D01*
X26441651Y-36279312D01*
X26461113Y-36257469D01*
X26553207Y-36154105D01*
X26553207Y-36154104D01*
X26554440Y-36152721D01*
X26556923Y-36148031D01*
X26632912Y-36004514D01*
X26632914Y-36004510D01*
X26633776Y-36002881D01*
X26635513Y-35995968D01*
X26644544Y-35960013D01*
X26675081Y-35838441D01*
X26675120Y-35831105D01*
X26675764Y-35708073D01*
X26675969Y-35668895D01*
X26673776Y-35659761D01*
X26636821Y-35505834D01*
X26636820Y-35505831D01*
X26636388Y-35504032D01*
X26558625Y-35353369D01*
X26557404Y-35351969D01*
X26448388Y-35227001D01*
X26448386Y-35227000D01*
X26447169Y-35225604D01*
X26308453Y-35128113D01*
X26150487Y-35066524D01*
X26148653Y-35066283D01*
X26148651Y-35066282D01*
X26083229Y-35057670D01*
X26021174Y-35049500D01*
X25932484Y-35049500D01*
X25931570Y-35049611D01*
X25931563Y-35049611D01*
X25865501Y-35057606D01*
X25806680Y-35064724D01*
X25770355Y-35078450D01*
X25649812Y-35123999D01*
X25649809Y-35124000D01*
X25648077Y-35124655D01*
X25646550Y-35125704D01*
X25646549Y-35125705D01*
X25641496Y-35129178D01*
X25508349Y-35220688D01*
X25507114Y-35222074D01*
X25507113Y-35222075D01*
X25443426Y-35293556D01*
X25395560Y-35347279D01*
X25394694Y-35348914D01*
X25394693Y-35348916D01*
X25317088Y-35495486D01*
X25317086Y-35495490D01*
X25316224Y-35497119D01*
X25315774Y-35498909D01*
X25315774Y-35498910D01*
X25314035Y-35505834D01*
X25274919Y-35661559D01*
X25274909Y-35663411D01*
X25274909Y-35663413D01*
X25274604Y-35721776D01*
X25274031Y-35831105D01*
X20152900Y-35831105D01*
X20152900Y-31431105D01*
X25274031Y-31431105D01*
X25274464Y-31432908D01*
X25274464Y-31432909D01*
X25312653Y-31591972D01*
X25313612Y-31595968D01*
X25391375Y-31746631D01*
X25392595Y-31748029D01*
X25392596Y-31748031D01*
X25476919Y-31844692D01*
X25502831Y-31874396D01*
X25641547Y-31971887D01*
X25799513Y-32033476D01*
X25801347Y-32033717D01*
X25801349Y-32033718D01*
X25866771Y-32042330D01*
X25928826Y-32050500D01*
X26017516Y-32050500D01*
X26018430Y-32050389D01*
X26018437Y-32050389D01*
X26084499Y-32042394D01*
X26143320Y-32035276D01*
X26207025Y-32011204D01*
X26300188Y-31976001D01*
X26300191Y-31976000D01*
X26301923Y-31975345D01*
X26306955Y-31971887D01*
X26440120Y-31880364D01*
X26441651Y-31879312D01*
X26472497Y-31844692D01*
X26553207Y-31754105D01*
X26553207Y-31754104D01*
X26554440Y-31752721D01*
X26556923Y-31748031D01*
X26632912Y-31604514D01*
X26632914Y-31604510D01*
X26633776Y-31602881D01*
X26635513Y-31595968D01*
X26644544Y-31560013D01*
X26675081Y-31438441D01*
X26675105Y-31434003D01*
X26675650Y-31329811D01*
X26675969Y-31268895D01*
X26666762Y-31230546D01*
X26636821Y-31105834D01*
X26636820Y-31105831D01*
X26636388Y-31104032D01*
X26558625Y-30953369D01*
X26557404Y-30951969D01*
X26448388Y-30827001D01*
X26448386Y-30827000D01*
X26447169Y-30825604D01*
X26308453Y-30728113D01*
X26150487Y-30666524D01*
X26148653Y-30666283D01*
X26148651Y-30666282D01*
X26083229Y-30657670D01*
X26021174Y-30649500D01*
X25932484Y-30649500D01*
X25931570Y-30649611D01*
X25931563Y-30649611D01*
X25865501Y-30657606D01*
X25806680Y-30664724D01*
X25768786Y-30679043D01*
X25649812Y-30723999D01*
X25649809Y-30724000D01*
X25648077Y-30724655D01*
X25646550Y-30725704D01*
X25646549Y-30725705D01*
X25641496Y-30729178D01*
X25508349Y-30820688D01*
X25507114Y-30822074D01*
X25507113Y-30822075D01*
X25440268Y-30897100D01*
X25395560Y-30947279D01*
X25394694Y-30948914D01*
X25394693Y-30948916D01*
X25317088Y-31095486D01*
X25317086Y-31095490D01*
X25316224Y-31097119D01*
X25315774Y-31098909D01*
X25315774Y-31098910D01*
X25314035Y-31105834D01*
X25274919Y-31261559D01*
X25274909Y-31263411D01*
X25274909Y-31263413D01*
X25274479Y-31345590D01*
X25274031Y-31431105D01*
X20152900Y-31431105D01*
X20152900Y-30069664D01*
X31038288Y-30069664D01*
X31040534Y-30086839D01*
X31051028Y-30167088D01*
X31054344Y-30192449D01*
X31104216Y-30305793D01*
X31105622Y-30307465D01*
X31105624Y-30307469D01*
X31141973Y-30350711D01*
X31183895Y-30400583D01*
X31185722Y-30401799D01*
X31185724Y-30401801D01*
X31285149Y-30467984D01*
X31286976Y-30469200D01*
X31289068Y-30469854D01*
X31289069Y-30469854D01*
X31292334Y-30470874D01*
X31405173Y-30506127D01*
X31453449Y-30507012D01*
X31526794Y-30508356D01*
X31526795Y-30508356D01*
X31528982Y-30508396D01*
X31531093Y-30507820D01*
X31533136Y-30507566D01*
X31555826Y-30513816D01*
X31558681Y-30516336D01*
X32351416Y-31309070D01*
X32355240Y-31313730D01*
X32367669Y-31332331D01*
X32451323Y-31388227D01*
X32454294Y-31388818D01*
X32525087Y-31402900D01*
X32525090Y-31402900D01*
X32550000Y-31407855D01*
X32552971Y-31407264D01*
X32571940Y-31403491D01*
X32577939Y-31402900D01*
X33882507Y-31402900D01*
X33904251Y-31411906D01*
X34592333Y-32099988D01*
X34601339Y-32121732D01*
X34598424Y-32134799D01*
X34557339Y-32222308D01*
X34557002Y-32224470D01*
X34557002Y-32224471D01*
X34538949Y-32340421D01*
X34538288Y-32344664D01*
X34554344Y-32467449D01*
X34574024Y-32512175D01*
X34599419Y-32569890D01*
X34604216Y-32580793D01*
X34605622Y-32582465D01*
X34605624Y-32582469D01*
X34680432Y-32671463D01*
X34683895Y-32675583D01*
X34685722Y-32676799D01*
X34685724Y-32676801D01*
X34785149Y-32742984D01*
X34786976Y-32744200D01*
X34789068Y-32744854D01*
X34789069Y-32744854D01*
X34903086Y-32780475D01*
X34905173Y-32781127D01*
X34948728Y-32781925D01*
X35026793Y-32783356D01*
X35026794Y-32783356D01*
X35028982Y-32783396D01*
X35031094Y-32782820D01*
X35031096Y-32782820D01*
X35072155Y-32771626D01*
X35148452Y-32750825D01*
X35150314Y-32749682D01*
X35150318Y-32749680D01*
X35252116Y-32687175D01*
X35252117Y-32687175D01*
X35253979Y-32686031D01*
X35275462Y-32662297D01*
X35335607Y-32595851D01*
X35335609Y-32595848D01*
X35337078Y-32594225D01*
X35367720Y-32530979D01*
X35390114Y-32484759D01*
X35390115Y-32484757D01*
X35391070Y-32482785D01*
X35393313Y-32469457D01*
X35401490Y-32420851D01*
X35411615Y-32360671D01*
X35411745Y-32350000D01*
X35411421Y-32347733D01*
X35397937Y-32253586D01*
X35394190Y-32227420D01*
X35342937Y-32114695D01*
X35304356Y-32069919D01*
X35263538Y-32022548D01*
X35262105Y-32020885D01*
X35260267Y-32019693D01*
X35260265Y-32019692D01*
X35177052Y-31965756D01*
X35174795Y-31964293D01*
X35165957Y-31955578D01*
X35157331Y-31942669D01*
X35150395Y-31938034D01*
X35138733Y-31930242D01*
X35134073Y-31926418D01*
X34198582Y-30990927D01*
X34194758Y-30986267D01*
X34184015Y-30970189D01*
X34184014Y-30970188D01*
X34182331Y-30967669D01*
X34161214Y-30953559D01*
X34161213Y-30953558D01*
X34151816Y-30947279D01*
X34101195Y-30913455D01*
X34101193Y-30913454D01*
X34098677Y-30911773D01*
X34000000Y-30892145D01*
X33997029Y-30892736D01*
X33978060Y-30896509D01*
X33972061Y-30897100D01*
X32667492Y-30897100D01*
X32645748Y-30888094D01*
X32462894Y-30705240D01*
X32453888Y-30683496D01*
X32462894Y-30661752D01*
X32484638Y-30652746D01*
X32493808Y-30654145D01*
X32573502Y-30679043D01*
X32580173Y-30681127D01*
X32623728Y-30681925D01*
X32701793Y-30683356D01*
X32701794Y-30683356D01*
X32703982Y-30683396D01*
X32706094Y-30682820D01*
X32706096Y-30682820D01*
X32765868Y-30666524D01*
X32823452Y-30650825D01*
X32825314Y-30649682D01*
X32825318Y-30649680D01*
X32927116Y-30587175D01*
X32927117Y-30587175D01*
X32928979Y-30586031D01*
X32995071Y-30513014D01*
X33017869Y-30502900D01*
X35582508Y-30502900D01*
X35604251Y-30511906D01*
X35863093Y-30770747D01*
X35872100Y-30792491D01*
X35872100Y-37007508D01*
X35863094Y-37029252D01*
X35358317Y-37534028D01*
X35336386Y-37543033D01*
X35281319Y-37542696D01*
X35217923Y-37542309D01*
X35217920Y-37542309D01*
X35215727Y-37542296D01*
X35096664Y-37576324D01*
X35044301Y-37609363D01*
X34993789Y-37641233D01*
X34993787Y-37641235D01*
X34991937Y-37642402D01*
X34909965Y-37735217D01*
X34909032Y-37737203D01*
X34909032Y-37737204D01*
X34858269Y-37845326D01*
X34858268Y-37845329D01*
X34857339Y-37847308D01*
X34857002Y-37849470D01*
X34857002Y-37849471D01*
X34840464Y-37955691D01*
X34838288Y-37969664D01*
X34841530Y-37994457D01*
X34854017Y-38089945D01*
X34854344Y-38092449D01*
X34880249Y-38151323D01*
X34902782Y-38202533D01*
X34904216Y-38205793D01*
X34905622Y-38207465D01*
X34905624Y-38207469D01*
X34964860Y-38277938D01*
X34983895Y-38300583D01*
X34985722Y-38301799D01*
X34985724Y-38301801D01*
X35085149Y-38367984D01*
X35086976Y-38369200D01*
X35089068Y-38369854D01*
X35089069Y-38369854D01*
X35108181Y-38375825D01*
X35205173Y-38406127D01*
X35248728Y-38406925D01*
X35326793Y-38408356D01*
X35326794Y-38408356D01*
X35328982Y-38408396D01*
X35331094Y-38407820D01*
X35331096Y-38407820D01*
X35372155Y-38396626D01*
X35448452Y-38375825D01*
X35450314Y-38374682D01*
X35450318Y-38374680D01*
X35552116Y-38312175D01*
X35552117Y-38312175D01*
X35553979Y-38311031D01*
X35575462Y-38287297D01*
X35635607Y-38220851D01*
X35635609Y-38220848D01*
X35637078Y-38219225D01*
X35671196Y-38148806D01*
X35690114Y-38109759D01*
X35690115Y-38109757D01*
X35691070Y-38107785D01*
X35691743Y-38103789D01*
X35700553Y-38051418D01*
X35711615Y-37985671D01*
X35711745Y-37975000D01*
X35711293Y-37971840D01*
X35704018Y-37921045D01*
X35709851Y-37898245D01*
X35712713Y-37894942D01*
X36284070Y-37323584D01*
X36288730Y-37319760D01*
X36304811Y-37309015D01*
X36304812Y-37309014D01*
X36307331Y-37307331D01*
X36363227Y-37223677D01*
X36377900Y-37149911D01*
X36377900Y-37149910D01*
X36382855Y-37125000D01*
X36378491Y-37103060D01*
X36377900Y-37097061D01*
X36377900Y-36019664D01*
X49288288Y-36019664D01*
X49304344Y-36142449D01*
X49337245Y-36217222D01*
X49348543Y-36242899D01*
X49354216Y-36255793D01*
X49355622Y-36257465D01*
X49355624Y-36257469D01*
X49427018Y-36342402D01*
X49433895Y-36350583D01*
X49435722Y-36351799D01*
X49435724Y-36351801D01*
X49535149Y-36417984D01*
X49536976Y-36419200D01*
X49539068Y-36419854D01*
X49539069Y-36419854D01*
X49589146Y-36435499D01*
X49655173Y-36456127D01*
X49698728Y-36456925D01*
X49776793Y-36458356D01*
X49776794Y-36458356D01*
X49778982Y-36458396D01*
X49781094Y-36457820D01*
X49781096Y-36457820D01*
X49822155Y-36446626D01*
X49898452Y-36425825D01*
X49900314Y-36424682D01*
X49900318Y-36424680D01*
X50002116Y-36362175D01*
X50002117Y-36362175D01*
X50003979Y-36361031D01*
X50054128Y-36305628D01*
X50085607Y-36270851D01*
X50085609Y-36270848D01*
X50087078Y-36269225D01*
X50141070Y-36157785D01*
X50142198Y-36151084D01*
X50161418Y-36036839D01*
X50161615Y-36035671D01*
X50161745Y-36025000D01*
X50161293Y-36021840D01*
X50144501Y-35904593D01*
X50144190Y-35902420D01*
X50092937Y-35789695D01*
X50032009Y-35718984D01*
X50013538Y-35697548D01*
X50012105Y-35695885D01*
X50010267Y-35694693D01*
X50010265Y-35694692D01*
X50000000Y-35688039D01*
X49991925Y-35682805D01*
X49978578Y-35663421D01*
X49977900Y-35657001D01*
X49977900Y-34685930D01*
X58167345Y-34685930D01*
X58167471Y-34687431D01*
X58168527Y-34700000D01*
X58183803Y-34881919D01*
X58210909Y-34976449D01*
X58236738Y-35066524D01*
X58238015Y-35070979D01*
X58327916Y-35245908D01*
X58328850Y-35247086D01*
X58328851Y-35247088D01*
X58449151Y-35398869D01*
X58449155Y-35398873D01*
X58450083Y-35400044D01*
X58599862Y-35527516D01*
X58601168Y-35528246D01*
X58601171Y-35528248D01*
X58770233Y-35622733D01*
X58770236Y-35622734D01*
X58771547Y-35623467D01*
X58958600Y-35684244D01*
X59067794Y-35697265D01*
X59152407Y-35707355D01*
X59152411Y-35707355D01*
X59153895Y-35707532D01*
X59155390Y-35707417D01*
X59155393Y-35707417D01*
X59348490Y-35692559D01*
X59348493Y-35692559D01*
X59349994Y-35692443D01*
X59351442Y-35692039D01*
X59351446Y-35692038D01*
X59515893Y-35646123D01*
X59539428Y-35639552D01*
X59714981Y-35550874D01*
X59869966Y-35429786D01*
X59882133Y-35415691D01*
X59985452Y-35295994D01*
X59998480Y-35280901D01*
X60010237Y-35260206D01*
X60094886Y-35111196D01*
X60095628Y-35109890D01*
X60106087Y-35078450D01*
X60157237Y-34924689D01*
X60157238Y-34924685D01*
X60157710Y-34923266D01*
X60162571Y-34884792D01*
X60174092Y-34793586D01*
X60692200Y-34793586D01*
X60699859Y-34884792D01*
X60700399Y-34887733D01*
X60755085Y-35078450D01*
X60756185Y-35081227D01*
X60846873Y-35257688D01*
X60848496Y-35260206D01*
X60971732Y-35415691D01*
X60973807Y-35417838D01*
X61124899Y-35546429D01*
X61127350Y-35548133D01*
X61300538Y-35644924D01*
X61303283Y-35646123D01*
X61491973Y-35707432D01*
X61494888Y-35708073D01*
X61620426Y-35723043D01*
X61624933Y-35721776D01*
X61626500Y-35718984D01*
X61626500Y-35717153D01*
X61803500Y-35717153D01*
X61805025Y-35720835D01*
X61810212Y-35722754D01*
X61892696Y-35716407D01*
X61895652Y-35715886D01*
X62086737Y-35662533D01*
X62089527Y-35661451D01*
X62266609Y-35572001D01*
X62269146Y-35570391D01*
X62425482Y-35448248D01*
X62427646Y-35446188D01*
X62557289Y-35295994D01*
X62559009Y-35293556D01*
X62657009Y-35121046D01*
X62658226Y-35118313D01*
X62720851Y-34930054D01*
X62721512Y-34927145D01*
X62738260Y-34794568D01*
X62737025Y-34790053D01*
X62734303Y-34788500D01*
X61809617Y-34788500D01*
X61805292Y-34790292D01*
X61803500Y-34794617D01*
X61803500Y-35717153D01*
X61626500Y-35717153D01*
X61626500Y-34794617D01*
X61624708Y-34790292D01*
X61620383Y-34788500D01*
X60697890Y-34788500D01*
X60693565Y-34790292D01*
X60692200Y-34793586D01*
X60174092Y-34793586D01*
X60182254Y-34728977D01*
X60182360Y-34728138D01*
X60182753Y-34700000D01*
X60181521Y-34687431D01*
X60173480Y-34605421D01*
X60692125Y-34605421D01*
X60693423Y-34609919D01*
X60696288Y-34611500D01*
X61620383Y-34611500D01*
X61624708Y-34609708D01*
X61626500Y-34605383D01*
X61803500Y-34605383D01*
X61805292Y-34609708D01*
X61809617Y-34611500D01*
X62732174Y-34611500D01*
X62736499Y-34609708D01*
X62737806Y-34606554D01*
X62727462Y-34501052D01*
X62726882Y-34498120D01*
X62669535Y-34308179D01*
X62668400Y-34305425D01*
X62575255Y-34130244D01*
X62573600Y-34127753D01*
X62448205Y-33974003D01*
X62446096Y-33971880D01*
X62293232Y-33845420D01*
X62290742Y-33843741D01*
X62116228Y-33749382D01*
X62113468Y-33748222D01*
X61923943Y-33689554D01*
X61921011Y-33688952D01*
X61809581Y-33677240D01*
X61805095Y-33678569D01*
X61803500Y-33681507D01*
X61803500Y-34605383D01*
X61626500Y-34605383D01*
X61626500Y-33682883D01*
X61624708Y-33678558D01*
X61621485Y-33677222D01*
X61523130Y-33686173D01*
X61520184Y-33686735D01*
X61329860Y-33742751D01*
X61327086Y-33743871D01*
X61151260Y-33835791D01*
X61148765Y-33837423D01*
X60994135Y-33961748D01*
X60992007Y-33963832D01*
X60864473Y-34115822D01*
X60862783Y-34118291D01*
X60767206Y-34292145D01*
X60766027Y-34294895D01*
X60706037Y-34484008D01*
X60705414Y-34486940D01*
X60692125Y-34605421D01*
X60173480Y-34605421D01*
X60163708Y-34505756D01*
X60163707Y-34505753D01*
X60163561Y-34504260D01*
X60163129Y-34502829D01*
X60163128Y-34502824D01*
X60107146Y-34317407D01*
X60106714Y-34315975D01*
X60014379Y-34142318D01*
X59962130Y-34078255D01*
X59891022Y-33991067D01*
X59891018Y-33991063D01*
X59890072Y-33989903D01*
X59858558Y-33963832D01*
X59739690Y-33865496D01*
X59739688Y-33865495D01*
X59738528Y-33864535D01*
X59565520Y-33770990D01*
X59377637Y-33712830D01*
X59182035Y-33692272D01*
X59180540Y-33692408D01*
X59180538Y-33692408D01*
X58987668Y-33709960D01*
X58987665Y-33709961D01*
X58986166Y-33710097D01*
X58797489Y-33765628D01*
X58796160Y-33766323D01*
X58796157Y-33766324D01*
X58697522Y-33817889D01*
X58623192Y-33856748D01*
X58622027Y-33857685D01*
X58622025Y-33857686D01*
X58471078Y-33979050D01*
X58471075Y-33979053D01*
X58469912Y-33979988D01*
X58468952Y-33981132D01*
X58468950Y-33981134D01*
X58355934Y-34115822D01*
X58343489Y-34130653D01*
X58248739Y-34303004D01*
X58189269Y-34490476D01*
X58167345Y-34685930D01*
X49977900Y-34685930D01*
X49977900Y-32145930D01*
X58167345Y-32145930D01*
X58167471Y-32147431D01*
X58180937Y-32307785D01*
X58183803Y-32341919D01*
X58238015Y-32530979D01*
X58327916Y-32705908D01*
X58328850Y-32707086D01*
X58328851Y-32707088D01*
X58449151Y-32858869D01*
X58449155Y-32858873D01*
X58450083Y-32860044D01*
X58599862Y-32987516D01*
X58601168Y-32988246D01*
X58601171Y-32988248D01*
X58770233Y-33082733D01*
X58770236Y-33082734D01*
X58771547Y-33083467D01*
X58958600Y-33144244D01*
X59067794Y-33157265D01*
X59152407Y-33167355D01*
X59152411Y-33167355D01*
X59153895Y-33167532D01*
X59155390Y-33167417D01*
X59155393Y-33167417D01*
X59348490Y-33152559D01*
X59348493Y-33152559D01*
X59349994Y-33152443D01*
X59351442Y-33152039D01*
X59351446Y-33152038D01*
X59515893Y-33106123D01*
X59539428Y-33099552D01*
X59714981Y-33010874D01*
X59869966Y-32889786D01*
X59882133Y-32875691D01*
X59961834Y-32783356D01*
X59998480Y-32740901D01*
X60010237Y-32720206D01*
X60094886Y-32571196D01*
X60095628Y-32569890D01*
X60106087Y-32538450D01*
X60157237Y-32384689D01*
X60157238Y-32384685D01*
X60157710Y-32383266D01*
X60160565Y-32360671D01*
X60174092Y-32253586D01*
X60692200Y-32253586D01*
X60699859Y-32344792D01*
X60700399Y-32347733D01*
X60755085Y-32538450D01*
X60756185Y-32541227D01*
X60846873Y-32717688D01*
X60848496Y-32720206D01*
X60971732Y-32875691D01*
X60973807Y-32877838D01*
X61124899Y-33006429D01*
X61127350Y-33008133D01*
X61300538Y-33104924D01*
X61303283Y-33106123D01*
X61491973Y-33167432D01*
X61494888Y-33168073D01*
X61620426Y-33183043D01*
X61624933Y-33181776D01*
X61626500Y-33178984D01*
X61626500Y-33177153D01*
X61803500Y-33177153D01*
X61805025Y-33180835D01*
X61810212Y-33182754D01*
X61892696Y-33176407D01*
X61895652Y-33175886D01*
X62086737Y-33122533D01*
X62089527Y-33121451D01*
X62266609Y-33032001D01*
X62269146Y-33030391D01*
X62425482Y-32908248D01*
X62427646Y-32906188D01*
X62557289Y-32755994D01*
X62559009Y-32753556D01*
X62657009Y-32581046D01*
X62658226Y-32578313D01*
X62720851Y-32390054D01*
X62721512Y-32387145D01*
X62738260Y-32254568D01*
X62737025Y-32250053D01*
X62734303Y-32248500D01*
X61809617Y-32248500D01*
X61805292Y-32250292D01*
X61803500Y-32254617D01*
X61803500Y-33177153D01*
X61626500Y-33177153D01*
X61626500Y-32254617D01*
X61624708Y-32250292D01*
X61620383Y-32248500D01*
X60697890Y-32248500D01*
X60693565Y-32250292D01*
X60692200Y-32253586D01*
X60174092Y-32253586D01*
X60182254Y-32188977D01*
X60182360Y-32188138D01*
X60182395Y-32185671D01*
X60182741Y-32160861D01*
X60182753Y-32160000D01*
X60181521Y-32147431D01*
X60173480Y-32065421D01*
X60692125Y-32065421D01*
X60693423Y-32069919D01*
X60696288Y-32071500D01*
X61620383Y-32071500D01*
X61624708Y-32069708D01*
X61626500Y-32065383D01*
X61803500Y-32065383D01*
X61805292Y-32069708D01*
X61809617Y-32071500D01*
X62732174Y-32071500D01*
X62736499Y-32069708D01*
X62737806Y-32066554D01*
X62727462Y-31961052D01*
X62726882Y-31958120D01*
X62669535Y-31768179D01*
X62668400Y-31765425D01*
X62575255Y-31590244D01*
X62573600Y-31587753D01*
X62448205Y-31434003D01*
X62446096Y-31431880D01*
X62293232Y-31305420D01*
X62290742Y-31303741D01*
X62116228Y-31209382D01*
X62113468Y-31208222D01*
X61923943Y-31149554D01*
X61921011Y-31148952D01*
X61809581Y-31137240D01*
X61805095Y-31138569D01*
X61803500Y-31141507D01*
X61803500Y-32065383D01*
X61626500Y-32065383D01*
X61626500Y-31142883D01*
X61624708Y-31138558D01*
X61621485Y-31137222D01*
X61523130Y-31146173D01*
X61520184Y-31146735D01*
X61329860Y-31202751D01*
X61327086Y-31203871D01*
X61151260Y-31295791D01*
X61148765Y-31297423D01*
X60994135Y-31421748D01*
X60992007Y-31423832D01*
X60864473Y-31575822D01*
X60862783Y-31578291D01*
X60767206Y-31752145D01*
X60766027Y-31754895D01*
X60706037Y-31944008D01*
X60705414Y-31946940D01*
X60692125Y-32065421D01*
X60173480Y-32065421D01*
X60163708Y-31965756D01*
X60163707Y-31965753D01*
X60163561Y-31964260D01*
X60163129Y-31962829D01*
X60163128Y-31962824D01*
X60107146Y-31777407D01*
X60106714Y-31775975D01*
X60014379Y-31602318D01*
X59962130Y-31538255D01*
X59891022Y-31451067D01*
X59891018Y-31451063D01*
X59890072Y-31449903D01*
X59858558Y-31423832D01*
X59739690Y-31325496D01*
X59739688Y-31325495D01*
X59738528Y-31324535D01*
X59565520Y-31230990D01*
X59377637Y-31172830D01*
X59182035Y-31152272D01*
X59180540Y-31152408D01*
X59180538Y-31152408D01*
X58987668Y-31169960D01*
X58987665Y-31169961D01*
X58986166Y-31170097D01*
X58797489Y-31225628D01*
X58796160Y-31226323D01*
X58796157Y-31226324D01*
X58732198Y-31259761D01*
X58623192Y-31316748D01*
X58622027Y-31317685D01*
X58622025Y-31317686D01*
X58471078Y-31439050D01*
X58471075Y-31439053D01*
X58469912Y-31439988D01*
X58468952Y-31441132D01*
X58468950Y-31441134D01*
X58355934Y-31575822D01*
X58343489Y-31590653D01*
X58342764Y-31591972D01*
X58260066Y-31742401D01*
X58248739Y-31763004D01*
X58189269Y-31950476D01*
X58167345Y-32145930D01*
X49977900Y-32145930D01*
X49977900Y-29605930D01*
X58167345Y-29605930D01*
X58167471Y-29607431D01*
X58179098Y-29745885D01*
X58183803Y-29801919D01*
X58192563Y-29832469D01*
X58235839Y-29983389D01*
X58238015Y-29990979D01*
X58327916Y-30165908D01*
X58328850Y-30167086D01*
X58328851Y-30167088D01*
X58449151Y-30318869D01*
X58449155Y-30318873D01*
X58450083Y-30320044D01*
X58599862Y-30447516D01*
X58601168Y-30448246D01*
X58601171Y-30448248D01*
X58770233Y-30542733D01*
X58770236Y-30542734D01*
X58771547Y-30543467D01*
X58958600Y-30604244D01*
X59067794Y-30617265D01*
X59152407Y-30627355D01*
X59152411Y-30627355D01*
X59153895Y-30627532D01*
X59155390Y-30627417D01*
X59155393Y-30627417D01*
X59348490Y-30612559D01*
X59348493Y-30612559D01*
X59349994Y-30612443D01*
X59351442Y-30612039D01*
X59351446Y-30612038D01*
X59482011Y-30575583D01*
X59539428Y-30559552D01*
X59714981Y-30470874D01*
X59869966Y-30349786D01*
X59998480Y-30200901D01*
X60003282Y-30192449D01*
X60094886Y-30031196D01*
X60095628Y-30029890D01*
X60096103Y-30028463D01*
X60157237Y-29844689D01*
X60157238Y-29844685D01*
X60157710Y-29843266D01*
X60158935Y-29833573D01*
X60182254Y-29648977D01*
X60182360Y-29648138D01*
X60182442Y-29642309D01*
X60182741Y-29620861D01*
X60182753Y-29620000D01*
X60181521Y-29607431D01*
X60181374Y-29605930D01*
X60707345Y-29605930D01*
X60707471Y-29607431D01*
X60719098Y-29745885D01*
X60723803Y-29801919D01*
X60732563Y-29832469D01*
X60775839Y-29983389D01*
X60778015Y-29990979D01*
X60867916Y-30165908D01*
X60868850Y-30167086D01*
X60868851Y-30167088D01*
X60989151Y-30318869D01*
X60989155Y-30318873D01*
X60990083Y-30320044D01*
X61139862Y-30447516D01*
X61141168Y-30448246D01*
X61141171Y-30448248D01*
X61310233Y-30542733D01*
X61310236Y-30542734D01*
X61311547Y-30543467D01*
X61498600Y-30604244D01*
X61607794Y-30617265D01*
X61692407Y-30627355D01*
X61692411Y-30627355D01*
X61693895Y-30627532D01*
X61695390Y-30627417D01*
X61695393Y-30627417D01*
X61888490Y-30612559D01*
X61888493Y-30612559D01*
X61889994Y-30612443D01*
X61891442Y-30612039D01*
X61891446Y-30612038D01*
X62022011Y-30575583D01*
X62079428Y-30559552D01*
X62254981Y-30470874D01*
X62409966Y-30349786D01*
X62538480Y-30200901D01*
X62543282Y-30192449D01*
X62634886Y-30031196D01*
X62635628Y-30029890D01*
X62636103Y-30028463D01*
X62697237Y-29844689D01*
X62697238Y-29844685D01*
X62697710Y-29843266D01*
X62698935Y-29833573D01*
X62722254Y-29648977D01*
X62722360Y-29648138D01*
X62722442Y-29642309D01*
X62722741Y-29620861D01*
X62722753Y-29620000D01*
X62721521Y-29607431D01*
X62703708Y-29425756D01*
X62703707Y-29425753D01*
X62703561Y-29424260D01*
X62703129Y-29422829D01*
X62703128Y-29422824D01*
X62655849Y-29266233D01*
X62646714Y-29235975D01*
X62608331Y-29163787D01*
X62555085Y-29063645D01*
X62555083Y-29063642D01*
X62554379Y-29062318D01*
X62502130Y-28998255D01*
X62431022Y-28911067D01*
X62431018Y-28911063D01*
X62430072Y-28909903D01*
X62278528Y-28784535D01*
X62105520Y-28690990D01*
X61917637Y-28632830D01*
X61722035Y-28612272D01*
X61720540Y-28612408D01*
X61720538Y-28612408D01*
X61527668Y-28629960D01*
X61527665Y-28629961D01*
X61526166Y-28630097D01*
X61337489Y-28685628D01*
X61336160Y-28686323D01*
X61336157Y-28686324D01*
X61237522Y-28737889D01*
X61163192Y-28776748D01*
X61162027Y-28777685D01*
X61162025Y-28777686D01*
X61011078Y-28899050D01*
X61011075Y-28899053D01*
X61009912Y-28899988D01*
X61008952Y-28901132D01*
X61008950Y-28901134D01*
X60894676Y-29037321D01*
X60883489Y-29050653D01*
X60788739Y-29223004D01*
X60729269Y-29410476D01*
X60707345Y-29605930D01*
X60181374Y-29605930D01*
X60163708Y-29425756D01*
X60163707Y-29425753D01*
X60163561Y-29424260D01*
X60163129Y-29422829D01*
X60163128Y-29422824D01*
X60115849Y-29266233D01*
X60106714Y-29235975D01*
X60068331Y-29163787D01*
X60015085Y-29063645D01*
X60015083Y-29063642D01*
X60014379Y-29062318D01*
X59962130Y-28998255D01*
X59891022Y-28911067D01*
X59891018Y-28911063D01*
X59890072Y-28909903D01*
X59738528Y-28784535D01*
X59565520Y-28690990D01*
X59377637Y-28632830D01*
X59182035Y-28612272D01*
X59180540Y-28612408D01*
X59180538Y-28612408D01*
X58987668Y-28629960D01*
X58987665Y-28629961D01*
X58986166Y-28630097D01*
X58797489Y-28685628D01*
X58796160Y-28686323D01*
X58796157Y-28686324D01*
X58697522Y-28737889D01*
X58623192Y-28776748D01*
X58622027Y-28777685D01*
X58622025Y-28777686D01*
X58471078Y-28899050D01*
X58471075Y-28899053D01*
X58469912Y-28899988D01*
X58468952Y-28901132D01*
X58468950Y-28901134D01*
X58354676Y-29037321D01*
X58343489Y-29050653D01*
X58248739Y-29223004D01*
X58189269Y-29410476D01*
X58167345Y-29605930D01*
X49977900Y-29605930D01*
X49977900Y-28567493D01*
X49986906Y-28545749D01*
X50492352Y-28040302D01*
X50514659Y-28031301D01*
X50626793Y-28033356D01*
X50626794Y-28033356D01*
X50628982Y-28033396D01*
X50631094Y-28032820D01*
X50631096Y-28032820D01*
X50678280Y-28019956D01*
X50748452Y-28000825D01*
X50750314Y-27999682D01*
X50750318Y-27999680D01*
X50852116Y-27937175D01*
X50852117Y-27937175D01*
X50853979Y-27936031D01*
X50885518Y-27901187D01*
X50935607Y-27845851D01*
X50935609Y-27845848D01*
X50937078Y-27844225D01*
X50991070Y-27732785D01*
X51011615Y-27610671D01*
X51011745Y-27600000D01*
X51011293Y-27596840D01*
X50998235Y-27505664D01*
X50994190Y-27477420D01*
X50942937Y-27364695D01*
X50891233Y-27304689D01*
X50863538Y-27272548D01*
X50862105Y-27270885D01*
X50860267Y-27269693D01*
X50860265Y-27269692D01*
X50760032Y-27204724D01*
X50760030Y-27204723D01*
X50758194Y-27203533D01*
X50691354Y-27183543D01*
X50641656Y-27168680D01*
X50641654Y-27168680D01*
X50639555Y-27168052D01*
X50578093Y-27167677D01*
X50517923Y-27167309D01*
X50517920Y-27167309D01*
X50515727Y-27167296D01*
X50513617Y-27167899D01*
X50428253Y-27192296D01*
X50396664Y-27201324D01*
X50351653Y-27229724D01*
X50293789Y-27266233D01*
X50293787Y-27266235D01*
X50291937Y-27267402D01*
X50209965Y-27360217D01*
X50209032Y-27362203D01*
X50209032Y-27362204D01*
X50158269Y-27470326D01*
X50158268Y-27470329D01*
X50157339Y-27472308D01*
X50157002Y-27474470D01*
X50157002Y-27474471D01*
X50152651Y-27502420D01*
X50138288Y-27594664D01*
X50145786Y-27651998D01*
X50146084Y-27654277D01*
X50139973Y-27677004D01*
X50137338Y-27680008D01*
X49817665Y-27999680D01*
X49565927Y-28251418D01*
X49561267Y-28255242D01*
X49542669Y-28267669D01*
X49528559Y-28288786D01*
X49528558Y-28288787D01*
X49486773Y-28351323D01*
X49467145Y-28450000D01*
X49467736Y-28452971D01*
X49471509Y-28471940D01*
X49472100Y-28477939D01*
X49472100Y-35656414D01*
X49463094Y-35678158D01*
X49457758Y-35682420D01*
X49441937Y-35692402D01*
X49440491Y-35694039D01*
X49440489Y-35694041D01*
X49370075Y-35773769D01*
X49359965Y-35785217D01*
X49359032Y-35787203D01*
X49359032Y-35787204D01*
X49308269Y-35895326D01*
X49308268Y-35895329D01*
X49307339Y-35897308D01*
X49307002Y-35899470D01*
X49307002Y-35899471D01*
X49290647Y-36004514D01*
X49288288Y-36019664D01*
X36377900Y-36019664D01*
X36377900Y-30709793D01*
X36386906Y-30688049D01*
X36408650Y-30679043D01*
X36430394Y-30688049D01*
X37837177Y-32094832D01*
X37846183Y-32116576D01*
X37845817Y-32121307D01*
X37839659Y-32160861D01*
X37838288Y-32169664D01*
X37854344Y-32292449D01*
X37904216Y-32405793D01*
X37905622Y-32407465D01*
X37905624Y-32407469D01*
X37980432Y-32496463D01*
X37983895Y-32500583D01*
X37985722Y-32501799D01*
X37985724Y-32501801D01*
X38040781Y-32538450D01*
X38086976Y-32569200D01*
X38089068Y-32569854D01*
X38089069Y-32569854D01*
X38124083Y-32580793D01*
X38205173Y-32606127D01*
X38248728Y-32606925D01*
X38326793Y-32608356D01*
X38326794Y-32608356D01*
X38328982Y-32608396D01*
X38331094Y-32607820D01*
X38331096Y-32607820D01*
X38380961Y-32594225D01*
X38448452Y-32575825D01*
X38450314Y-32574682D01*
X38450318Y-32574680D01*
X38552116Y-32512175D01*
X38552117Y-32512175D01*
X38553979Y-32511031D01*
X38595398Y-32465272D01*
X38635607Y-32420851D01*
X38635609Y-32420848D01*
X38637078Y-32419225D01*
X38671190Y-32348817D01*
X38690114Y-32309759D01*
X38690115Y-32309757D01*
X38691070Y-32307785D01*
X38693313Y-32294457D01*
X38705784Y-32220327D01*
X38711615Y-32185671D01*
X38711745Y-32175000D01*
X38711293Y-32171840D01*
X38694501Y-32054593D01*
X38694190Y-32052420D01*
X38642937Y-31939695D01*
X38589713Y-31877925D01*
X38563538Y-31847548D01*
X38562105Y-31845885D01*
X38560267Y-31844693D01*
X38560265Y-31844692D01*
X38460032Y-31779724D01*
X38460030Y-31779723D01*
X38458194Y-31778533D01*
X38379155Y-31754895D01*
X38341656Y-31743680D01*
X38341654Y-31743680D01*
X38339555Y-31743052D01*
X38274276Y-31742653D01*
X38217915Y-31742309D01*
X38217913Y-31742309D01*
X38215727Y-31742296D01*
X38215729Y-31742003D01*
X38194481Y-31736424D01*
X38191334Y-31733679D01*
X35898582Y-29440927D01*
X35894758Y-29436267D01*
X35884015Y-29420189D01*
X35884014Y-29420188D01*
X35882331Y-29417669D01*
X35861214Y-29403559D01*
X35861213Y-29403558D01*
X35801195Y-29363455D01*
X35801193Y-29363454D01*
X35798677Y-29361773D01*
X35790854Y-29360217D01*
X35724911Y-29347100D01*
X35700000Y-29342145D01*
X35697029Y-29342736D01*
X35678060Y-29346509D01*
X35672061Y-29347100D01*
X34634793Y-29347100D01*
X34613049Y-29338094D01*
X34604043Y-29316350D01*
X34613049Y-29294606D01*
X35842353Y-28065302D01*
X35864660Y-28056301D01*
X35976793Y-28058356D01*
X35976794Y-28058356D01*
X35978982Y-28058396D01*
X35981094Y-28057820D01*
X35981096Y-28057820D01*
X36030565Y-28044333D01*
X36098452Y-28025825D01*
X36100314Y-28024682D01*
X36100318Y-28024680D01*
X36202116Y-27962175D01*
X36202117Y-27962175D01*
X36203979Y-27961031D01*
X36228075Y-27934410D01*
X36285607Y-27870851D01*
X36285609Y-27870848D01*
X36287078Y-27869225D01*
X36341070Y-27757785D01*
X36359204Y-27650000D01*
X37392329Y-27650000D01*
X37411331Y-27794336D01*
X37467043Y-27928835D01*
X37468271Y-27930436D01*
X37468272Y-27930437D01*
X37492625Y-27962175D01*
X37555667Y-28044333D01*
X37557270Y-28045563D01*
X37581616Y-28064244D01*
X37671164Y-28132957D01*
X37805664Y-28188669D01*
X37950000Y-28207671D01*
X38094336Y-28188669D01*
X38228836Y-28132957D01*
X38318385Y-28064244D01*
X38342730Y-28045563D01*
X38344333Y-28044333D01*
X38407375Y-27962175D01*
X38431728Y-27930437D01*
X38431729Y-27930436D01*
X38432957Y-27928835D01*
X38435837Y-27921883D01*
X38452478Y-27905241D01*
X38464246Y-27902900D01*
X39072061Y-27902900D01*
X39078060Y-27903491D01*
X39100000Y-27907855D01*
X39102971Y-27907264D01*
X39133523Y-27901187D01*
X39195706Y-27888818D01*
X39198677Y-27888227D01*
X39201193Y-27886546D01*
X39201195Y-27886545D01*
X39215969Y-27876673D01*
X39261213Y-27846442D01*
X39261214Y-27846441D01*
X39279812Y-27834014D01*
X39282331Y-27832331D01*
X39294758Y-27813733D01*
X39298582Y-27809073D01*
X40041725Y-27065930D01*
X58167345Y-27065930D01*
X58167471Y-27067431D01*
X58183413Y-27257270D01*
X58183803Y-27261919D01*
X58238015Y-27450979D01*
X58327916Y-27625908D01*
X58328850Y-27627086D01*
X58328851Y-27627088D01*
X58449151Y-27778869D01*
X58449155Y-27778873D01*
X58450083Y-27780044D01*
X58599862Y-27907516D01*
X58601168Y-27908246D01*
X58601171Y-27908248D01*
X58770233Y-28002733D01*
X58770236Y-28002734D01*
X58771547Y-28003467D01*
X58958600Y-28064244D01*
X59067794Y-28077265D01*
X59152407Y-28087355D01*
X59152411Y-28087355D01*
X59153895Y-28087532D01*
X59155390Y-28087417D01*
X59155393Y-28087417D01*
X59348490Y-28072559D01*
X59348493Y-28072559D01*
X59349994Y-28072443D01*
X59351442Y-28072039D01*
X59351446Y-28072038D01*
X59489844Y-28033396D01*
X59539428Y-28019552D01*
X59714981Y-27930874D01*
X59869966Y-27809786D01*
X59998480Y-27660901D01*
X60095628Y-27489890D01*
X60096103Y-27488463D01*
X60157237Y-27304689D01*
X60157238Y-27304685D01*
X60157710Y-27303266D01*
X60158433Y-27297548D01*
X60182254Y-27108977D01*
X60182360Y-27108138D01*
X60182753Y-27080000D01*
X60181521Y-27067431D01*
X60181374Y-27065930D01*
X60707345Y-27065930D01*
X60707471Y-27067431D01*
X60723413Y-27257270D01*
X60723803Y-27261919D01*
X60778015Y-27450979D01*
X60867916Y-27625908D01*
X60868850Y-27627086D01*
X60868851Y-27627088D01*
X60989151Y-27778869D01*
X60989155Y-27778873D01*
X60990083Y-27780044D01*
X61139862Y-27907516D01*
X61141168Y-27908246D01*
X61141171Y-27908248D01*
X61310233Y-28002733D01*
X61310236Y-28002734D01*
X61311547Y-28003467D01*
X61498600Y-28064244D01*
X61607794Y-28077265D01*
X61692407Y-28087355D01*
X61692411Y-28087355D01*
X61693895Y-28087532D01*
X61695390Y-28087417D01*
X61695393Y-28087417D01*
X61888490Y-28072559D01*
X61888493Y-28072559D01*
X61889994Y-28072443D01*
X61891442Y-28072039D01*
X61891446Y-28072038D01*
X62029844Y-28033396D01*
X62079428Y-28019552D01*
X62254981Y-27930874D01*
X62409966Y-27809786D01*
X62538480Y-27660901D01*
X62635628Y-27489890D01*
X62636103Y-27488463D01*
X62697237Y-27304689D01*
X62697238Y-27304685D01*
X62697710Y-27303266D01*
X62698433Y-27297548D01*
X62722254Y-27108977D01*
X62722360Y-27108138D01*
X62722753Y-27080000D01*
X62721521Y-27067431D01*
X62703708Y-26885756D01*
X62703707Y-26885753D01*
X62703561Y-26884260D01*
X62703129Y-26882829D01*
X62703128Y-26882824D01*
X62647146Y-26697407D01*
X62646714Y-26695975D01*
X62554379Y-26522318D01*
X62502130Y-26458255D01*
X62431022Y-26371067D01*
X62431018Y-26371063D01*
X62430072Y-26369903D01*
X62278528Y-26244535D01*
X62105520Y-26150990D01*
X61917637Y-26092830D01*
X61722035Y-26072272D01*
X61720540Y-26072408D01*
X61720538Y-26072408D01*
X61527668Y-26089960D01*
X61527665Y-26089961D01*
X61526166Y-26090097D01*
X61337489Y-26145628D01*
X61336160Y-26146323D01*
X61336157Y-26146324D01*
X61295665Y-26167493D01*
X61163192Y-26236748D01*
X61162027Y-26237685D01*
X61162025Y-26237686D01*
X61011078Y-26359050D01*
X61011075Y-26359053D01*
X61009912Y-26359988D01*
X61008952Y-26361132D01*
X61008950Y-26361134D01*
X60894676Y-26497321D01*
X60883489Y-26510653D01*
X60788739Y-26683004D01*
X60729269Y-26870476D01*
X60707345Y-27065930D01*
X60181374Y-27065930D01*
X60163708Y-26885756D01*
X60163707Y-26885753D01*
X60163561Y-26884260D01*
X60163129Y-26882829D01*
X60163128Y-26882824D01*
X60107146Y-26697407D01*
X60106714Y-26695975D01*
X60014379Y-26522318D01*
X59962130Y-26458255D01*
X59891022Y-26371067D01*
X59891018Y-26371063D01*
X59890072Y-26369903D01*
X59738528Y-26244535D01*
X59565520Y-26150990D01*
X59377637Y-26092830D01*
X59182035Y-26072272D01*
X59180540Y-26072408D01*
X59180538Y-26072408D01*
X58987668Y-26089960D01*
X58987665Y-26089961D01*
X58986166Y-26090097D01*
X58797489Y-26145628D01*
X58796160Y-26146323D01*
X58796157Y-26146324D01*
X58755665Y-26167493D01*
X58623192Y-26236748D01*
X58622027Y-26237685D01*
X58622025Y-26237686D01*
X58471078Y-26359050D01*
X58471075Y-26359053D01*
X58469912Y-26359988D01*
X58468952Y-26361132D01*
X58468950Y-26361134D01*
X58354676Y-26497321D01*
X58343489Y-26510653D01*
X58248739Y-26683004D01*
X58189269Y-26870476D01*
X58167345Y-27065930D01*
X40041725Y-27065930D01*
X40967353Y-26140302D01*
X40989660Y-26131301D01*
X41101793Y-26133356D01*
X41101794Y-26133356D01*
X41103982Y-26133396D01*
X41106094Y-26132820D01*
X41106096Y-26132820D01*
X41147155Y-26121626D01*
X41223452Y-26100825D01*
X41225314Y-26099682D01*
X41225318Y-26099680D01*
X41327116Y-26037175D01*
X41327117Y-26037175D01*
X41328979Y-26036031D01*
X41350462Y-26012297D01*
X41410607Y-25945851D01*
X41410609Y-25945848D01*
X41412078Y-25944225D01*
X41456005Y-25853559D01*
X41465114Y-25834759D01*
X41465115Y-25834757D01*
X41466070Y-25832785D01*
X41469028Y-25815207D01*
X41476751Y-25769298D01*
X41486615Y-25710671D01*
X41486745Y-25700000D01*
X41486293Y-25696840D01*
X41469501Y-25579593D01*
X41469190Y-25577420D01*
X41417937Y-25464695D01*
X41416247Y-25462733D01*
X41338538Y-25372548D01*
X41337105Y-25370885D01*
X41335267Y-25369693D01*
X41335265Y-25369692D01*
X41235032Y-25304724D01*
X41235030Y-25304723D01*
X41233194Y-25303533D01*
X41166354Y-25283543D01*
X41116656Y-25268680D01*
X41116654Y-25268680D01*
X41114555Y-25268052D01*
X41049276Y-25267653D01*
X40992915Y-25267309D01*
X40992913Y-25267309D01*
X40990727Y-25267296D01*
X40990729Y-25267003D01*
X40969481Y-25261424D01*
X40966334Y-25258679D01*
X40233585Y-24525930D01*
X58167345Y-24525930D01*
X58167471Y-24527431D01*
X58168527Y-24540000D01*
X58183803Y-24721919D01*
X58238015Y-24910979D01*
X58327916Y-25085908D01*
X58328850Y-25087086D01*
X58328851Y-25087088D01*
X58449151Y-25238869D01*
X58449155Y-25238873D01*
X58450083Y-25240044D01*
X58599862Y-25367516D01*
X58601168Y-25368246D01*
X58601171Y-25368248D01*
X58770233Y-25462733D01*
X58770236Y-25462734D01*
X58771547Y-25463467D01*
X58772978Y-25463932D01*
X58792944Y-25470419D01*
X58958600Y-25524244D01*
X59067794Y-25537265D01*
X59152407Y-25547355D01*
X59152411Y-25547355D01*
X59153895Y-25547532D01*
X59155390Y-25547417D01*
X59155393Y-25547417D01*
X59348490Y-25532559D01*
X59348493Y-25532559D01*
X59349994Y-25532443D01*
X59351442Y-25532039D01*
X59351446Y-25532038D01*
X59460374Y-25501624D01*
X59539428Y-25479552D01*
X59714981Y-25390874D01*
X59869966Y-25269786D01*
X59872110Y-25267303D01*
X59997501Y-25122035D01*
X59998480Y-25120901D01*
X60095628Y-24949890D01*
X60096103Y-24948463D01*
X60157237Y-24764689D01*
X60157238Y-24764685D01*
X60157710Y-24763266D01*
X60163123Y-24720421D01*
X60182254Y-24568977D01*
X60182360Y-24568138D01*
X60182753Y-24540000D01*
X60181521Y-24527431D01*
X60163708Y-24345756D01*
X60163707Y-24345753D01*
X60163561Y-24344260D01*
X60163129Y-24342829D01*
X60163128Y-24342824D01*
X60107146Y-24157407D01*
X60106714Y-24155975D01*
X60014379Y-23982318D01*
X59962130Y-23918255D01*
X59891022Y-23831067D01*
X59891018Y-23831063D01*
X59890072Y-23829903D01*
X59738528Y-23704535D01*
X59565520Y-23610990D01*
X59377637Y-23552830D01*
X59182035Y-23532272D01*
X59180540Y-23532408D01*
X59180538Y-23532408D01*
X58987668Y-23549960D01*
X58987665Y-23549961D01*
X58986166Y-23550097D01*
X58797489Y-23605628D01*
X58796160Y-23606323D01*
X58796157Y-23606324D01*
X58697522Y-23657889D01*
X58623192Y-23696748D01*
X58622027Y-23697685D01*
X58622025Y-23697686D01*
X58471078Y-23819050D01*
X58471075Y-23819053D01*
X58469912Y-23819988D01*
X58468952Y-23821132D01*
X58468950Y-23821134D01*
X58354676Y-23957321D01*
X58343489Y-23970653D01*
X58248739Y-24143004D01*
X58189269Y-24330476D01*
X58167345Y-24525930D01*
X40233585Y-24525930D01*
X40211905Y-24504250D01*
X40202899Y-24482506D01*
X40202899Y-23659944D01*
X40194028Y-23615342D01*
X40191599Y-23611706D01*
X40161917Y-23567285D01*
X40160234Y-23564766D01*
X40109658Y-23530972D01*
X40106687Y-23530381D01*
X40066541Y-23522395D01*
X40066539Y-23522395D01*
X40065057Y-23522100D01*
X40063544Y-23522100D01*
X39200001Y-23522101D01*
X38334944Y-23522101D01*
X38333463Y-23522396D01*
X38333459Y-23522396D01*
X38293312Y-23530381D01*
X38293311Y-23530382D01*
X38290342Y-23530972D01*
X38239766Y-23564766D01*
X38205972Y-23615342D01*
X38197100Y-23659943D01*
X38197101Y-25390056D01*
X38205972Y-25434658D01*
X38239766Y-25485234D01*
X38290342Y-25519028D01*
X38293313Y-25519619D01*
X38333459Y-25527605D01*
X38333461Y-25527605D01*
X38334943Y-25527900D01*
X39200000Y-25527900D01*
X40065056Y-25527899D01*
X40066537Y-25527604D01*
X40066541Y-25527604D01*
X40106688Y-25519619D01*
X40106689Y-25519618D01*
X40109658Y-25519028D01*
X40160234Y-25485234D01*
X40194028Y-25434658D01*
X40202900Y-25390057D01*
X40202900Y-25284793D01*
X40211906Y-25263049D01*
X40233650Y-25254043D01*
X40255394Y-25263049D01*
X40612177Y-25619832D01*
X40621183Y-25641576D01*
X40620817Y-25646307D01*
X40613288Y-25694664D01*
X40615381Y-25710671D01*
X40621083Y-25754277D01*
X40614972Y-25777005D01*
X40612337Y-25780008D01*
X39004251Y-27388094D01*
X38982507Y-27397100D01*
X38464246Y-27397100D01*
X38442502Y-27388094D01*
X38435837Y-27378117D01*
X38433731Y-27373034D01*
X38432957Y-27371165D01*
X38427993Y-27364695D01*
X38345563Y-27257270D01*
X38344333Y-27255667D01*
X38332589Y-27246655D01*
X38230438Y-27168272D01*
X38230437Y-27168271D01*
X38228836Y-27167043D01*
X38094336Y-27111331D01*
X37950000Y-27092329D01*
X37805664Y-27111331D01*
X37671165Y-27167043D01*
X37669564Y-27168271D01*
X37669563Y-27168272D01*
X37627273Y-27200722D01*
X37555667Y-27255667D01*
X37554437Y-27257270D01*
X37472008Y-27364695D01*
X37467043Y-27371165D01*
X37411331Y-27505664D01*
X37392329Y-27650000D01*
X36359204Y-27650000D01*
X36361615Y-27635671D01*
X36361745Y-27625000D01*
X36361293Y-27621840D01*
X36344941Y-27507663D01*
X36344190Y-27502420D01*
X36292937Y-27389695D01*
X36278579Y-27373031D01*
X36213538Y-27297548D01*
X36212105Y-27295885D01*
X36210267Y-27294693D01*
X36210265Y-27294692D01*
X36110032Y-27229724D01*
X36110030Y-27229723D01*
X36108194Y-27228533D01*
X36024601Y-27203533D01*
X35991656Y-27193680D01*
X35991654Y-27193680D01*
X35989555Y-27193052D01*
X35928093Y-27192677D01*
X35867923Y-27192309D01*
X35867920Y-27192309D01*
X35865727Y-27192296D01*
X35863617Y-27192899D01*
X35836245Y-27200722D01*
X35746664Y-27226324D01*
X35702108Y-27254437D01*
X35643789Y-27291233D01*
X35643787Y-27291235D01*
X35641937Y-27292402D01*
X35559965Y-27385217D01*
X35559032Y-27387203D01*
X35559032Y-27387204D01*
X35508269Y-27495326D01*
X35508268Y-27495329D01*
X35507339Y-27497308D01*
X35507002Y-27499470D01*
X35507002Y-27499471D01*
X35489873Y-27609487D01*
X35488288Y-27619664D01*
X35494778Y-27669298D01*
X35496083Y-27679277D01*
X35489972Y-27702005D01*
X35487337Y-27705008D01*
X34065927Y-29126418D01*
X34061267Y-29130242D01*
X34042669Y-29142669D01*
X34028559Y-29163786D01*
X34028558Y-29163787D01*
X34009183Y-29192784D01*
X33986773Y-29226323D01*
X33986182Y-29229294D01*
X33985024Y-29232090D01*
X33983936Y-29231639D01*
X33972691Y-29247997D01*
X33943789Y-29266233D01*
X33943787Y-29266235D01*
X33941937Y-29267402D01*
X33859965Y-29360217D01*
X33859032Y-29362203D01*
X33859032Y-29362204D01*
X33808269Y-29470326D01*
X33808268Y-29470329D01*
X33807339Y-29472308D01*
X33788288Y-29594664D01*
X33795281Y-29648138D01*
X33798888Y-29675722D01*
X33804344Y-29717449D01*
X33816046Y-29744043D01*
X33848543Y-29817899D01*
X33854216Y-29830793D01*
X33855622Y-29832465D01*
X33855624Y-29832469D01*
X33927018Y-29917402D01*
X33933895Y-29925583D01*
X33935722Y-29926799D01*
X33935724Y-29926801D01*
X33956684Y-29940753D01*
X33969794Y-29960299D01*
X33965242Y-29983389D01*
X33945696Y-29996499D01*
X33939645Y-29997100D01*
X33016870Y-29997100D01*
X32993575Y-29986422D01*
X32938538Y-29922548D01*
X32937105Y-29920885D01*
X32935267Y-29919693D01*
X32935265Y-29919692D01*
X32835032Y-29854724D01*
X32835030Y-29854723D01*
X32833194Y-29853533D01*
X32750457Y-29828789D01*
X32716656Y-29818680D01*
X32716654Y-29818680D01*
X32714555Y-29818052D01*
X32653093Y-29817677D01*
X32592923Y-29817309D01*
X32592920Y-29817309D01*
X32590727Y-29817296D01*
X32588617Y-29817899D01*
X32494880Y-29844689D01*
X32471664Y-29851324D01*
X32454893Y-29861906D01*
X32368789Y-29916233D01*
X32368787Y-29916235D01*
X32366937Y-29917402D01*
X32284965Y-30010217D01*
X32284032Y-30012203D01*
X32284032Y-30012204D01*
X32233269Y-30120326D01*
X32233268Y-30120329D01*
X32232339Y-30122308D01*
X32232002Y-30124470D01*
X32232002Y-30124471D01*
X32225367Y-30167088D01*
X32213288Y-30244664D01*
X32229344Y-30367449D01*
X32243923Y-30400583D01*
X32245234Y-30403562D01*
X32245747Y-30427091D01*
X32229472Y-30444092D01*
X32205943Y-30444605D01*
X32195344Y-30437690D01*
X31912991Y-30155337D01*
X31903985Y-30133593D01*
X31904411Y-30128491D01*
X31911418Y-30086839D01*
X31911615Y-30085671D01*
X31911745Y-30075000D01*
X31911293Y-30071840D01*
X31899299Y-29988094D01*
X31894190Y-29952420D01*
X31842937Y-29839695D01*
X31824157Y-29817899D01*
X31763538Y-29747548D01*
X31762105Y-29745885D01*
X31760267Y-29744693D01*
X31760265Y-29744692D01*
X31660032Y-29679724D01*
X31660030Y-29679723D01*
X31658194Y-29678533D01*
X31559367Y-29648977D01*
X31541656Y-29643680D01*
X31541654Y-29643680D01*
X31539555Y-29643052D01*
X31478093Y-29642677D01*
X31417923Y-29642309D01*
X31417920Y-29642309D01*
X31415727Y-29642296D01*
X31296664Y-29676324D01*
X31244300Y-29709363D01*
X31193789Y-29741233D01*
X31193787Y-29741235D01*
X31191937Y-29742402D01*
X31109965Y-29835217D01*
X31109032Y-29837203D01*
X31109032Y-29837204D01*
X31058269Y-29945326D01*
X31058268Y-29945329D01*
X31057339Y-29947308D01*
X31057002Y-29949470D01*
X31057002Y-29949471D01*
X31044278Y-30031196D01*
X31038288Y-30069664D01*
X20152900Y-30069664D01*
X20152900Y-21970930D01*
X38192345Y-21970930D01*
X38192471Y-21972431D01*
X38193527Y-21985000D01*
X38208803Y-22166919D01*
X38263015Y-22355979D01*
X38352916Y-22530908D01*
X38353850Y-22532086D01*
X38353851Y-22532088D01*
X38474151Y-22683869D01*
X38474155Y-22683873D01*
X38475083Y-22685044D01*
X38476225Y-22686016D01*
X38549972Y-22748780D01*
X38624862Y-22812516D01*
X38626168Y-22813246D01*
X38626171Y-22813248D01*
X38795233Y-22907733D01*
X38795236Y-22907734D01*
X38796547Y-22908467D01*
X38797978Y-22908932D01*
X38807956Y-22912174D01*
X38983600Y-22969244D01*
X39092794Y-22982265D01*
X39177407Y-22992355D01*
X39177411Y-22992355D01*
X39178895Y-22992532D01*
X39180390Y-22992417D01*
X39180393Y-22992417D01*
X39373490Y-22977559D01*
X39373493Y-22977559D01*
X39374994Y-22977443D01*
X39376442Y-22977039D01*
X39376446Y-22977038D01*
X39513132Y-22938874D01*
X39564428Y-22924552D01*
X39739981Y-22835874D01*
X39894966Y-22714786D01*
X40023480Y-22565901D01*
X40120628Y-22394890D01*
X40121103Y-22393463D01*
X40182237Y-22209689D01*
X40182238Y-22209685D01*
X40182710Y-22208266D01*
X40186039Y-22181919D01*
X40207254Y-22013977D01*
X40207360Y-22013138D01*
X40207532Y-22000861D01*
X40207741Y-21985861D01*
X40207753Y-21985000D01*
X40206521Y-21972431D01*
X40188708Y-21790756D01*
X40188707Y-21790753D01*
X40188561Y-21789260D01*
X40188129Y-21787829D01*
X40188128Y-21787824D01*
X40136243Y-21615975D01*
X40131714Y-21600975D01*
X40116428Y-21572226D01*
X40040085Y-21428645D01*
X40040083Y-21428642D01*
X40039379Y-21427318D01*
X39987130Y-21363255D01*
X39916022Y-21276067D01*
X39916018Y-21276063D01*
X39915072Y-21274903D01*
X39763528Y-21149535D01*
X39736541Y-21134943D01*
X58172100Y-21134943D01*
X58172101Y-22865056D01*
X58180972Y-22909658D01*
X58214766Y-22960234D01*
X58265342Y-22994028D01*
X58268313Y-22994619D01*
X58308459Y-23002605D01*
X58308461Y-23002605D01*
X58309943Y-23002900D01*
X59175000Y-23002900D01*
X60040056Y-23002899D01*
X60041537Y-23002604D01*
X60041541Y-23002604D01*
X60081688Y-22994619D01*
X60081689Y-22994618D01*
X60084658Y-22994028D01*
X60135234Y-22960234D01*
X60169028Y-22909658D01*
X60177900Y-22865057D01*
X60177899Y-21985930D01*
X60707345Y-21985930D01*
X60707471Y-21987431D01*
X60722665Y-22168362D01*
X60723803Y-22181919D01*
X60778015Y-22370979D01*
X60867916Y-22545908D01*
X60868850Y-22547086D01*
X60868851Y-22547088D01*
X60989151Y-22698869D01*
X60989155Y-22698873D01*
X60990083Y-22700044D01*
X61139862Y-22827516D01*
X61141168Y-22828246D01*
X61141171Y-22828248D01*
X61310233Y-22922733D01*
X61310236Y-22922734D01*
X61311547Y-22923467D01*
X61498600Y-22984244D01*
X61607794Y-22997265D01*
X61692407Y-23007355D01*
X61692411Y-23007355D01*
X61693895Y-23007532D01*
X61695390Y-23007417D01*
X61695393Y-23007417D01*
X61888490Y-22992559D01*
X61888493Y-22992559D01*
X61889994Y-22992443D01*
X61891442Y-22992039D01*
X61891446Y-22992038D01*
X62000374Y-22961624D01*
X62079428Y-22939552D01*
X62254981Y-22850874D01*
X62409966Y-22729786D01*
X62423894Y-22713651D01*
X62537501Y-22582035D01*
X62538480Y-22580901D01*
X62635628Y-22409890D01*
X62636103Y-22408463D01*
X62697237Y-22224689D01*
X62697238Y-22224685D01*
X62697710Y-22223266D01*
X62703123Y-22180421D01*
X62722254Y-22028977D01*
X62722360Y-22028138D01*
X62722753Y-22000000D01*
X62721521Y-21987431D01*
X62703708Y-21805756D01*
X62703707Y-21805753D01*
X62703561Y-21804260D01*
X62703129Y-21802829D01*
X62703128Y-21802824D01*
X62647146Y-21617407D01*
X62646714Y-21615975D01*
X62554379Y-21442318D01*
X62502130Y-21378255D01*
X62431022Y-21291067D01*
X62431018Y-21291063D01*
X62430072Y-21289903D01*
X62278528Y-21164535D01*
X62105520Y-21070990D01*
X61917637Y-21012830D01*
X61722035Y-20992272D01*
X61720540Y-20992408D01*
X61720538Y-20992408D01*
X61527668Y-21009960D01*
X61527665Y-21009961D01*
X61526166Y-21010097D01*
X61337489Y-21065628D01*
X61336160Y-21066323D01*
X61336157Y-21066324D01*
X61295030Y-21087825D01*
X61163192Y-21156748D01*
X61162027Y-21157685D01*
X61162025Y-21157686D01*
X61011078Y-21279050D01*
X61011075Y-21279053D01*
X61009912Y-21279988D01*
X61008952Y-21281132D01*
X61008950Y-21281134D01*
X60897040Y-21414503D01*
X60883489Y-21430653D01*
X60882764Y-21431972D01*
X60796199Y-21589435D01*
X60788739Y-21603004D01*
X60729269Y-21790476D01*
X60707345Y-21985930D01*
X60177899Y-21985930D01*
X60177899Y-21134944D01*
X60169028Y-21090342D01*
X60135234Y-21039766D01*
X60084658Y-21005972D01*
X60081687Y-21005381D01*
X60041541Y-20997395D01*
X60041539Y-20997395D01*
X60040057Y-20997100D01*
X60038544Y-20997100D01*
X59175001Y-20997101D01*
X58309944Y-20997101D01*
X58308463Y-20997396D01*
X58308459Y-20997396D01*
X58268312Y-21005381D01*
X58268311Y-21005382D01*
X58265342Y-21005972D01*
X58262827Y-21007653D01*
X58262826Y-21007653D01*
X58258532Y-21010522D01*
X58214766Y-21039766D01*
X58180972Y-21090342D01*
X58172100Y-21134943D01*
X39736541Y-21134943D01*
X39590520Y-21055990D01*
X39402637Y-20997830D01*
X39207035Y-20977272D01*
X39205540Y-20977408D01*
X39205538Y-20977408D01*
X39012668Y-20994960D01*
X39012665Y-20994961D01*
X39011166Y-20995097D01*
X38822489Y-21050628D01*
X38821160Y-21051323D01*
X38821157Y-21051324D01*
X38746523Y-21090342D01*
X38648192Y-21141748D01*
X38647027Y-21142685D01*
X38647025Y-21142686D01*
X38496078Y-21264050D01*
X38496075Y-21264053D01*
X38494912Y-21264988D01*
X38493952Y-21266132D01*
X38493950Y-21266134D01*
X38474006Y-21289903D01*
X38368489Y-21415653D01*
X38273739Y-21588004D01*
X38214269Y-21775476D01*
X38192345Y-21970930D01*
X20152900Y-21970930D01*
X20152900Y-20183650D01*
X20161906Y-20161906D01*
X20183650Y-20152900D01*
X63391350Y-20152900D01*
X63413094Y-20161906D01*
G37*
%TD.AperFunction*%
%TD*%
M02*
