%TF.GenerationSoftware,KiCad,Pcbnew,(6.0.7)*%
%TF.CreationDate,2022-09-02T14:05:42+02:00*%
%TF.ProjectId,blackmagic,626c6163-6b6d-4616-9769-632e6b696361,rev?*%
%TF.SameCoordinates,Original*%
%TF.FileFunction,Paste,Top*%
%TF.FilePolarity,Positive*%
%FSLAX46Y46*%
G04 Gerber Fmt 4.6, Leading zero omitted, Abs format (unit mm)*
G04 Created by KiCad (PCBNEW (6.0.7)) date 2022-09-02 14:05:42*
%MOMM*%
%LPD*%
G01*
G04 APERTURE LIST*
G04 Aperture macros list*
%AMRoundRect*
0 Rectangle with rounded corners*
0 $1 Rounding radius*
0 $2 $3 $4 $5 $6 $7 $8 $9 X,Y pos of 4 corners*
0 Add a 4 corners polygon primitive as box body*
4,1,4,$2,$3,$4,$5,$6,$7,$8,$9,$2,$3,0*
0 Add four circle primitives for the rounded corners*
1,1,$1+$1,$2,$3*
1,1,$1+$1,$4,$5*
1,1,$1+$1,$6,$7*
1,1,$1+$1,$8,$9*
0 Add four rect primitives between the rounded corners*
20,1,$1+$1,$2,$3,$4,$5,0*
20,1,$1+$1,$4,$5,$6,$7,0*
20,1,$1+$1,$6,$7,$8,$9,0*
20,1,$1+$1,$8,$9,$2,$3,0*%
G04 Aperture macros list end*
%ADD10R,1.800000X1.250000*%
%ADD11R,2.000000X5.000000*%
%ADD12RoundRect,0.075000X0.700000X0.075000X-0.700000X0.075000X-0.700000X-0.075000X0.700000X-0.075000X0*%
%ADD13RoundRect,0.075000X0.075000X0.700000X-0.075000X0.700000X-0.075000X-0.700000X0.075000X-0.700000X0*%
%ADD14R,3.000000X1.600000*%
%ADD15R,6.200000X5.800000*%
%ADD16R,0.508000X0.300000*%
%ADD17RoundRect,0.100000X0.637500X0.100000X-0.637500X0.100000X-0.637500X-0.100000X0.637500X-0.100000X0*%
%ADD18RoundRect,0.200000X0.275000X-0.200000X0.275000X0.200000X-0.275000X0.200000X-0.275000X-0.200000X0*%
%ADD19RoundRect,0.200000X-0.275000X0.200000X-0.275000X-0.200000X0.275000X-0.200000X0.275000X0.200000X0*%
%ADD20RoundRect,0.200000X-0.200000X-0.275000X0.200000X-0.275000X0.200000X0.275000X-0.200000X0.275000X0*%
%ADD21RoundRect,0.150000X0.150000X-0.587500X0.150000X0.587500X-0.150000X0.587500X-0.150000X-0.587500X0*%
%ADD22R,2.600000X0.450000*%
%ADD23R,2.500000X2.000000*%
%ADD24RoundRect,0.243750X0.456250X-0.243750X0.456250X0.243750X-0.456250X0.243750X-0.456250X-0.243750X0*%
%ADD25RoundRect,0.225000X0.250000X-0.225000X0.250000X0.225000X-0.250000X0.225000X-0.250000X-0.225000X0*%
%ADD26RoundRect,0.225000X-0.250000X0.225000X-0.250000X-0.225000X0.250000X-0.225000X0.250000X0.225000X0*%
%ADD27RoundRect,0.225000X0.225000X0.250000X-0.225000X0.250000X-0.225000X-0.250000X0.225000X-0.250000X0*%
%ADD28R,1.296000X1.758000*%
G04 APERTURE END LIST*
D10*
%TO.C,S1*%
X34025000Y-27725000D03*
X34025000Y-20875000D03*
%TD*%
D11*
%TO.C,X1*%
X54500000Y-34135000D03*
X54500000Y-43135000D03*
%TD*%
D12*
%TO.C,U4*%
X48175000Y-40000000D03*
X48175000Y-39500000D03*
X48175000Y-39000000D03*
X48175000Y-38500000D03*
X48175000Y-38000000D03*
X48175000Y-37500000D03*
X48175000Y-37000000D03*
X48175000Y-36500000D03*
X48175000Y-36000000D03*
X48175000Y-35500000D03*
X48175000Y-35000000D03*
X48175000Y-34500000D03*
X48175000Y-34000000D03*
X48175000Y-33500000D03*
X48175000Y-33000000D03*
X48175000Y-32500000D03*
D13*
X46250000Y-30575000D03*
X45750000Y-30575000D03*
X45250000Y-30575000D03*
X44750000Y-30575000D03*
X44250000Y-30575000D03*
X43750000Y-30575000D03*
X43250000Y-30575000D03*
X42750000Y-30575000D03*
X42250000Y-30575000D03*
X41750000Y-30575000D03*
X41250000Y-30575000D03*
X40750000Y-30575000D03*
X40250000Y-30575000D03*
X39750000Y-30575000D03*
X39250000Y-30575000D03*
X38750000Y-30575000D03*
D12*
X36825000Y-32500000D03*
X36825000Y-33000000D03*
X36825000Y-33500000D03*
X36825000Y-34000000D03*
X36825000Y-34500000D03*
X36825000Y-35000000D03*
X36825000Y-35500000D03*
X36825000Y-36000000D03*
X36825000Y-36500000D03*
X36825000Y-37000000D03*
X36825000Y-37500000D03*
X36825000Y-38000000D03*
X36825000Y-38500000D03*
X36825000Y-39000000D03*
X36825000Y-39500000D03*
X36825000Y-40000000D03*
D13*
X38750000Y-41925000D03*
X39250000Y-41925000D03*
X39750000Y-41925000D03*
X40250000Y-41925000D03*
X40750000Y-41925000D03*
X41250000Y-41925000D03*
X41750000Y-41925000D03*
X42250000Y-41925000D03*
X42750000Y-41925000D03*
X43250000Y-41925000D03*
X43750000Y-41925000D03*
X44250000Y-41925000D03*
X44750000Y-41925000D03*
X45250000Y-41925000D03*
X45750000Y-41925000D03*
X46250000Y-41925000D03*
%TD*%
D14*
%TO.C,U3*%
X21695000Y-41090000D03*
X21695000Y-45660000D03*
D15*
X28875000Y-43375000D03*
%TD*%
D16*
%TO.C,U2*%
X33025000Y-33075000D03*
X33025000Y-33575000D03*
X33025000Y-34075000D03*
X34525000Y-34075000D03*
X34525000Y-33575000D03*
X34525000Y-33075000D03*
%TD*%
D17*
%TO.C,U1*%
X49637500Y-26550000D03*
X49637500Y-25900000D03*
X49637500Y-25250000D03*
X49637500Y-24600000D03*
X49637500Y-23950000D03*
X49637500Y-23300000D03*
X49637500Y-22650000D03*
X49637500Y-22000000D03*
X49637500Y-21350000D03*
X49637500Y-20700000D03*
X43912500Y-20700000D03*
X43912500Y-21350000D03*
X43912500Y-22000000D03*
X43912500Y-22650000D03*
X43912500Y-23300000D03*
X43912500Y-23950000D03*
X43912500Y-24600000D03*
X43912500Y-25250000D03*
X43912500Y-25900000D03*
X43912500Y-26550000D03*
%TD*%
D18*
%TO.C,R15*%
X50650000Y-30275000D03*
X50650000Y-28625000D03*
%TD*%
%TO.C,R14*%
X34900000Y-31300000D03*
X34900000Y-29650000D03*
%TD*%
%TO.C,R13*%
X47800000Y-44750000D03*
X47800000Y-43100000D03*
%TD*%
%TO.C,R12*%
X49450000Y-43050000D03*
X49450000Y-44700000D03*
%TD*%
%TO.C,R11*%
X29695000Y-25845000D03*
X29695000Y-24195000D03*
%TD*%
%TO.C,R10*%
X27595000Y-25870000D03*
X27595000Y-24220000D03*
%TD*%
%TO.C,R9*%
X25520000Y-25870000D03*
X25520000Y-24220000D03*
%TD*%
%TO.C,R8*%
X23345000Y-25870000D03*
X23345000Y-24220000D03*
%TD*%
D19*
%TO.C,R7*%
X51050000Y-36875000D03*
X51050000Y-38525000D03*
%TD*%
%TO.C,R6*%
X51050000Y-39975000D03*
X51050000Y-41625000D03*
%TD*%
%TO.C,R5*%
X49050000Y-28575000D03*
X49050000Y-30225000D03*
%TD*%
D20*
%TO.C,R4*%
X34725000Y-37050000D03*
X33075000Y-37050000D03*
%TD*%
%TO.C,R3*%
X33075000Y-35525000D03*
X34725000Y-35525000D03*
%TD*%
%TO.C,R2*%
X31500000Y-31575000D03*
X33150000Y-31575000D03*
%TD*%
D19*
%TO.C,R1*%
X54175000Y-21325000D03*
X54175000Y-22975000D03*
%TD*%
D21*
%TO.C,Q1*%
X52250000Y-30387500D03*
X54150000Y-30387500D03*
X53200000Y-28512500D03*
%TD*%
D22*
%TO.C,J2*%
X29075000Y-31950000D03*
X29075000Y-32750000D03*
X29075000Y-33550000D03*
X29075000Y-34350000D03*
X29075000Y-35150000D03*
D23*
X28567000Y-29105000D03*
X22979000Y-29105000D03*
X28567000Y-37995000D03*
X22979000Y-37995000D03*
%TD*%
D24*
%TO.C,D4*%
X29695000Y-22682500D03*
X29695000Y-20807500D03*
%TD*%
%TO.C,D3*%
X27595000Y-22682500D03*
X27595000Y-20807500D03*
%TD*%
%TO.C,D2*%
X25470000Y-22682500D03*
X25470000Y-20807500D03*
%TD*%
%TO.C,D1*%
X23345000Y-22682500D03*
X23345000Y-20807500D03*
%TD*%
D25*
%TO.C,C13*%
X41975000Y-25400000D03*
X41975000Y-23850000D03*
%TD*%
%TO.C,C12*%
X33475000Y-40425000D03*
X33475000Y-38875000D03*
%TD*%
%TO.C,C11*%
X47475000Y-30175000D03*
X47475000Y-28625000D03*
%TD*%
D26*
%TO.C,C10*%
X51050000Y-33850000D03*
X51050000Y-35400000D03*
%TD*%
D27*
%TO.C,C9*%
X46075000Y-44000000D03*
X44525000Y-44000000D03*
%TD*%
D25*
%TO.C,C8*%
X36450000Y-31275000D03*
X36450000Y-29725000D03*
%TD*%
%TO.C,C7*%
X31575000Y-38775000D03*
X31575000Y-37225000D03*
%TD*%
D28*
%TO.C,C6*%
X33750000Y-42388500D03*
X33750000Y-45761500D03*
%TD*%
%TO.C,C5*%
X21125000Y-24561500D03*
X21125000Y-21188500D03*
%TD*%
D26*
%TO.C,C4*%
X51025000Y-43075000D03*
X51025000Y-44625000D03*
%TD*%
D25*
%TO.C,C3*%
X55800000Y-30600000D03*
X55800000Y-29050000D03*
%TD*%
D26*
%TO.C,C2*%
X52525000Y-21350000D03*
X52525000Y-22900000D03*
%TD*%
D28*
%TO.C,C1*%
X56125000Y-21288500D03*
X56125000Y-24661500D03*
%TD*%
M02*
